<?xml version="1.0" standalone="no"  ?>
<!DOCTYPE svg PUBLIC "-//W3C//DTD SVG 1.1//EN"
 "http://www.w3.org/Graphics/SVG/1.1/DTD/svg11.dtd">
<svg width="720" height="540" background-color="#FFFFFF" Encoding="UTF-8" xmlns="http://www.w3.org/2000/svg" xmlns:xlink = "http://www.w3.org/1999/xlink">
"type":"AnimEffectWipe","speed":"500"
                        <g id="groupstart">
            <rect x="3.5" y="341.5" width="708" height="93" fill="#000000" />
            <rect x="5" y="343" width="705" height="90" fill=" none " />
            <line x1="93"  y1="343" x2="93" y2="432" style="stroke:#000000;stroke-width:1.5;" />
            <line x1="155"  y1="343" x2="155" y2="432" style="stroke:#000000;stroke-width:1.5;" />
            <line x1="248"  y1="343" x2="248" y2="432" style="stroke:#000000;stroke-width:1.5;" />
            <line x1="334"  y1="343" x2="334" y2="432" style="stroke:#000000;stroke-width:1.5;" />
            <line x1="387"  y1="343" x2="387" y2="432" style="stroke:#000000;stroke-width:1.5;" />
            <rect x="155" y="343" width="95" height="31" fill=" none " />
            <g transform="translate(159, 363)" text-anchor="start">
                <text x="0" y="0"  font-family="Verdana" font-size="20">cheerful</text>
            </g>
            <rect x="7" y="371" width="74" height="31" fill=" none " />
            <g transform="translate(11, 391)" text-anchor="start">
                <text x="0" y="0"  font-family="Verdana" font-size="20">bright</text>
            </g>
            <rect x="90" y="344" width="74" height="31" fill=" none " />
            <g transform="translate(94, 364)" text-anchor="start">
                <text x="0" y="0"  font-family="Verdana" font-size="20">bright</text>
            </g>
            <rect x="247" y="373" width="59" height="31" fill=" none " />
            <g transform="translate(251, 393)" text-anchor="start">
                <text x="0" y="0"  font-family="Verdana" font-size="20">gray</text>
            </g>
            <rect x="90" y="403" width="59" height="31" fill=" none " />
            <g transform="translate(94, 423)" text-anchor="start">
                <text x="0" y="0"  font-family="Verdana" font-size="20">dark</text>
            </g>
            <rect x="156" y="374" width="89" height="31" fill=" none " />
            <g transform="translate(160, 394)" text-anchor="start">
                <text x="0" y="0"  font-family="Verdana" font-size="20">settling</text>
            </g>
            <rect x="154" y="404" width="104" height="31" fill=" none " />
            <g transform="translate(158, 424)" text-anchor="start">
                <text x="0" y="0"  font-family="Verdana" font-size="20">profound</text>
            </g>
            <rect x="247" y="343" width="69" height="31" fill=" none " />
            <g transform="translate(251, 363)" text-anchor="start">
                <text x="0" y="0"  font-family="Verdana" font-size="20">white</text>
            </g>
            <rect x="247" y="403" width="67" height="31" fill=" none " />
            <g transform="translate(251, 423)" text-anchor="start">
                <text x="0" y="0"  font-family="Verdana" font-size="20">black</text>
            </g>
            <rect x="387" y="343" width="264" height="31" fill=" none " />
            <g transform="translate(391, 363)" text-anchor="start">
                <text x="0" y="0"  font-family="Verdana" font-size="20">purity,&#160;freshness,&#160;bright.</text>
            </g>
            <rect x="387" y="373" width="211" height="31" fill=" none " />
            <g transform="translate(391, 393)" text-anchor="start">
                <text x="0" y="0"  font-family="Verdana" font-size="20">settling,&#160;depression</text>
            </g>
            <rect x="387" y="403" width="313" height="31" fill=" none " />
            <g transform="translate(391, 423)" text-anchor="start">
                <text x="0" y="0"  font-family="Verdana" font-size="20">depression,&#160;uneasiness,&#160;stern</text>
            </g>
            <line x1="393"  y1="372" x2="593" y2="372" style="stroke:#F04500;stroke-width:3;" />
            <line x1="393"  y1="402" x2="485" y2="402" style="stroke:#F04500;stroke-width:3;" />
            <line x1="144"  y1="184" x2="711" y2="184" style="stroke:#000000;stroke-width:1.5;" />
            <line x1="144"  y1="243" x2="711" y2="243" style="stroke:#000000;stroke-width:1.5;" />
            <line x1="144"  y1="374" x2="711" y2="374" style="stroke:#000000;stroke-width:1.5;" />
            <line x1="144"  y1="404" x2="711" y2="404" style="stroke:#000000;stroke-width:1.5;" />
            <line x1="144"  y1="475" x2="711" y2="475" style="stroke:#000000;stroke-width:1.5;" />
            <line x1="144"  y1="506" x2="711" y2="506" style="stroke:#000000;stroke-width:1.5;" />
            <line x1="9"  y1="94" x2="711" y2="94" style="stroke:#000000;stroke-width:1.5;" />
            <line x1="156"  y1="124" x2="711" y2="124" style="stroke:#000000;stroke-width:0.75;" />
            <line x1="156"  y1="154" x2="711" y2="154" style="stroke:#000000;stroke-width:0.75;" />
            <line x1="156"  y1="213" x2="711" y2="213" style="stroke:#000000;stroke-width:0.75;" />
            <line x1="156"  y1="272" x2="711" y2="272" style="stroke:#000000;stroke-width:0.75;" />
            <line x1="156"  y1="302" x2="711" y2="302" style="stroke:#000000;stroke-width:0.75;" />
            <line x1="94"  y1="96" x2="94" y2="332" style="stroke:#000000;stroke-width:1.5;" />
            <line x1="156"  y1="64" x2="156" y2="332" style="stroke:#000000;stroke-width:1.5;" />
            <line x1="250"  y1="64" x2="250" y2="330" style="stroke:#000000;stroke-width:1.5;" />
            <line x1="387"  y1="64" x2="387" y2="332" style="stroke:#000000;stroke-width:1.5;" />
            <rect x="266" y="65" width="63" height="31" fill=" none " />
            <g transform="translate(270, 85)" text-anchor="start">
                <text x="0" y="0"  font-family="Verdana" font-size="20">color</text>
            </g>
            <rect x="35" y="65" width="101" height="31" fill=" none " />
            <g transform="translate(39, 85)" text-anchor="start">
                <text x="0" y="0"  font-family="Verdana" font-size="20">attribute</text>
            </g>
            <rect x="164" y="65" width="81" height="31" fill=" none " />
            <g transform="translate(168, 85)" text-anchor="start">
                <text x="0" y="0"  font-family="Verdana" font-size="20">feeling</text>
            </g>
            <line x1="335"  y1="95" x2="335" y2="332" style="stroke:#000000;stroke-width:1.5;" />
            <rect x="156" y="95" width="71" height="31" fill=" none " />
            <g transform="translate(160, 115)" text-anchor="start">
                <text x="0" y="0"  font-family="Verdana" font-size="20">warm</text>
            </g>
            <rect x="156" y="124" width="92" height="31" fill=" none " />
            <g transform="translate(160, 144)" text-anchor="start">
                <text x="0" y="0"  font-family="Verdana" font-size="20">positive</text>
            </g>
            <rect x="156" y="154" width="74" height="31" fill=" none " />
            <g transform="translate(160, 174)" text-anchor="start">
                <text x="0" y="0"  font-family="Verdana" font-size="20">active</text>
            </g>
            <rect x="156" y="184" width="98" height="31" fill=" none " />
            <g transform="translate(160, 204)" text-anchor="start">
                <text x="0" y="0"  font-family="Verdana" font-size="20">ordinary</text>
            </g>
            <rect x="156" y="214" width="62" height="31" fill=" none " />
            <g transform="translate(160, 234)" text-anchor="start">
                <text x="0" y="0"  font-family="Verdana" font-size="20">calm</text>
            </g>
            <rect x="156" y="244" width="55" height="31" fill=" none " />
            <g transform="translate(160, 264)" text-anchor="start">
                <text x="0" y="0"  font-family="Verdana" font-size="20">cold</text>
            </g>
            <rect x="156" y="274" width="89" height="31" fill=" none " />
            <g transform="translate(160, 294)" text-anchor="start">
                <text x="0" y="0"  font-family="Verdana" font-size="20">passive</text>
            </g>
            <rect x="156" y="301" width="65" height="31" fill=" none " />
            <g transform="translate(160, 321)" text-anchor="start">
                <text x="0" y="0"  font-family="Verdana" font-size="20">quiet</text>
            </g>
            <rect x="13" y="182" width="52" height="31" fill=" none " />
            <g transform="translate(17, 202)" text-anchor="start">
                <text x="0" y="0"  font-family="Verdana" font-size="20">hue</text>
            </g>
            <rect x="92" y="123" width="71" height="31" fill=" none " />
            <g transform="translate(96, 143)" text-anchor="start">
                <text x="0" y="0"  font-family="Verdana" font-size="20">warm</text>
            </g>
            <rect x="92" y="277" width="55" height="31" fill=" none " />
            <g transform="translate(96, 297)" text-anchor="start">
                <text x="0" y="0"  font-family="Verdana" font-size="20">cold</text>
            </g>
            <rect x="247" y="94" width="47" height="31" fill=" none " />
            <g transform="translate(251, 114)" text-anchor="start">
                <text x="0" y="0"  font-family="Verdana" font-size="20">red</text>
            </g>
            <rect x="247" y="124" width="84" height="31" fill=" none " />
            <g transform="translate(251, 144)" text-anchor="start">
                <text x="0" y="0"  font-family="Verdana" font-size="20">orange</text>
            </g>
            <rect x="247" y="154" width="78" height="31" fill=" none " />
            <g transform="translate(251, 174)" text-anchor="start">
                <text x="0" y="0"  font-family="Verdana" font-size="20">yellow</text>
            </g>
            <rect x="247" y="184" width="72" height="31" fill=" none " />
            <g transform="translate(251, 204)" text-anchor="start">
                <text x="0" y="0"  font-family="Verdana" font-size="20">green</text>
            </g>
            <rect x="247" y="214" width="69" height="31" fill=" none " />
            <g transform="translate(251, 234)" text-anchor="start">
                <text x="0" y="0"  font-family="Verdana" font-size="20">violet</text>
            </g>
            <rect x="247" y="244" width="49" height="31" fill=" none " />
            <g transform="translate(251, 264)" text-anchor="start">
                <text x="0" y="0"  font-family="Verdana" font-size="20">sky</text>
            </g>
            <rect x="247" y="274" width="57" height="31" fill=" none " />
            <g transform="translate(251, 294)" text-anchor="start">
                <text x="0" y="0"  font-family="Verdana" font-size="20">blue</text>
            </g>
            <rect x="246" y="305" width="93" height="26" fill=" none " />
            <g transform="translate(250, 325)" text-anchor="start">
                <text x="0" y="0"  font-family="Verdana" font-size="16">navy&#160;blue</text>
            </g>
            <rect x="339" y="305" width="45" height="25" fill="#6802FE" />
            <rect x="446" y="66" width="184" height="31" fill=" none " />
            <g transform="translate(450, 86)" text-anchor="start">
                <text x="0" y="0"  font-family="Verdana" font-size="20">concrete&#160;feelings</text>
            </g>
            <rect x="387" y="94" width="264" height="31" fill=" none " />
            <g transform="translate(391, 114)" text-anchor="start">
                <text x="0" y="0"  font-family="Verdana" font-size="20">exciting,&#160;angry,&#160;rejoicing</text>
            </g>
            <rect x="387" y="123" width="325" height="31" fill=" none " />
            <g transform="translate(391, 143)" text-anchor="start">
                <text x="0" y="0"  font-family="Verdana" font-size="20">pleasure,&#160;
                 <tspan   font-family="Verdana" font-size="18">bubbling&#160;over</tspan>
                 <tspan   font-family="Verdana" font-size="20">,&#160;activity</tspan></text>
            </g>
            <rect x="387" y="153" width="284" height="31" fill=" none " />
            <g transform="translate(391, 173)" text-anchor="start">
                <text x="0" y="0"  font-family="Verdana" font-size="20">cheerfulness,&#160;pleasantness</text>
            </g>
            <rect x="387" y="183" width="274" height="31" fill=" none " />
            <g transform="translate(391, 203)" text-anchor="start">
                <text x="0" y="0"  font-family="Verdana" font-size="20">settling,&#160;relaxation,&#160;youth</text>
            </g>
            <rect x="387" y="213" width="330" height="31" fill=" none " />
            <g transform="translate(391, 233)" text-anchor="start">
                <text x="0" y="0"  font-family="Verdana" font-size="20">solemnity,&#160;mystery,&#160;gentleness</text>
            </g>
            <rect x="387" y="243" width="136" height="31" fill=" none " />
            <g transform="translate(391, 263)" text-anchor="start">
                <text x="0" y="0"  font-family="Verdana" font-size="20">repose,&#160;cool</text>
            </g>
            <rect x="387" y="273" width="273" height="31" fill=" none " />
            <g transform="translate(391, 293)" text-anchor="start">
                <text x="0" y="0"  font-family="Verdana" font-size="20">settling,&#160;loneliness,&#160;abyss</text>
            </g>
            <rect x="387" y="303" width="326" height="31" fill=" none " />
            <g transform="translate(391, 323)" text-anchor="start">
                <text x="0" y="0"  font-family="Verdana" font-size="20">mystery,&#160;sublimeness,&#160;solitude</text>
            </g>
            <line x1="390"  y1="183" x2="516" y2="183" style="stroke:#F04500;stroke-width:3;" />
            <line x1="394"  y1="212" x2="461" y2="212" style="stroke:#F04500;stroke-width:3;" />
            <line x1="396"  y1="242" x2="486" y2="242" style="stroke:#F04500;stroke-width:3;" />
            <line x1="393"  y1="271" x2="461" y2="271" style="stroke:#F04500;stroke-width:3;" />
            <line x1="393"  y1="301" x2="461" y2="301" style="stroke:#F04500;stroke-width:3;" />
            <rect x="6.5" y="62.5" width="707" height="270" fill="#000000" />
            <rect x="8" y="64" width="704" height="267" fill=" none " />
            <rect x="338" y="98" width="45" height="23" fill="#F80000" />
            <rect x="338" y="127" width="45" height="23" fill="#FF8000" />
            <rect x="338" y="157" width="45" height="23" fill="#FFFF00" />
            <rect x="338" y="187" width="45" height="23" fill="#00FF00" />
            <rect x="338" y="216" width="45" height="23" fill="#CB00FF" />
            <rect x="338" y="247" width="45" height="23" fill="#00FFFF" />
            <rect x="338" y="275" width="45" height="23" fill="#0048FF" />
            <rect x="338" y="376" width="45" height="23" fill="#969696" />
            <rect x="338" y="406" width="45" height="23" fill="#000000" />
            <rect x="338" y="479" width="45" height="23" fill="#FF5151" />
            <rect x="338" y="508" width="45" height="23" fill="#870101" />
            <rect x="339" y="449" width="45" height="23" fill="#E80000" />
            <rect x="4.5" y="443.5" width="708" height="93" fill="#000000" />
            <rect x="6" y="445" width="705" height="90" fill=" none " />
            <line x1="94"  y1="445" x2="94" y2="534" style="stroke:#000000;stroke-width:1.5;" />
            <line x1="156"  y1="445" x2="156" y2="534" style="stroke:#000000;stroke-width:1.5;" />
            <line x1="249"  y1="445" x2="249" y2="534" style="stroke:#000000;stroke-width:1.5;" />
            <line x1="335"  y1="445" x2="335" y2="534" style="stroke:#000000;stroke-width:1.5;" />
            <line x1="387"  y1="445" x2="387" y2="534" style="stroke:#000000;stroke-width:1.5;" />
            <rect x="156" y="445" width="65" height="31" fill=" none " />
            <g transform="translate(160, 465)" text-anchor="start">
                <text x="0" y="0"  font-family="Verdana" font-size="20">fresh</text>
            </g>
            <rect x="7" y="473" width="90" height="31" fill=" none " />
            <g transform="translate(11, 493)" text-anchor="start">
                <text x="0" y="0"  font-family="Verdana" font-size="20">chroma</text>
            </g>
            <rect x="93" y="446" width="58" height="31" fill=" none " />
            <g transform="translate(97, 466)" text-anchor="start">
                <text x="0" y="0"  font-family="Verdana" font-size="20">high</text>
            </g>
            <rect x="247" y="475" width="57" height="31" fill=" none " />
            <g transform="translate(251, 495)" text-anchor="start">
                <text x="0" y="0"  font-family="Verdana" font-size="20">pink</text>
            </g>
            <rect x="93" y="505" width="48" height="31" fill=" none " />
            <g transform="translate(97, 525)" text-anchor="start">
                <text x="0" y="0"  font-family="Verdana" font-size="20">low</text>
            </g>
            <rect x="157" y="476" width="58" height="31" fill=" none " />
            <g transform="translate(161, 496)" text-anchor="start">
                <text x="0" y="0"  font-family="Verdana" font-size="20">mild</text>
            </g>
            <rect x="157" y="506" width="69" height="31" fill=" none " />
            <g transform="translate(161, 526)" text-anchor="start">
                <text x="0" y="0"  font-family="Verdana" font-size="20">bitter</text>
            </g>
            <rect x="247" y="447" width="98" height="29" fill=" none " />
            <g transform="translate(251, 467)" text-anchor="start">
                <text x="0" y="0"  font-family="Verdana" font-size="18">vermilion</text>
            </g>
            <rect x="247" y="505" width="77" height="31" fill=" none " />
            <g transform="translate(251, 525)" text-anchor="start">
                <text x="0" y="0"  font-family="Verdana" font-size="20">brown</text>
            </g>
            <rect x="388" y="446" width="160" height="31" fill=" none " />
            <g transform="translate(392, 466)" text-anchor="start">
                <text x="0" y="0"  font-family="Verdana" font-size="20">&#160;zeal,&#160;violently</text>
            </g>
            <rect x="388" y="475" width="311" height="31" fill=" none " />
            <g transform="translate(392, 495)" text-anchor="start">
                <text x="0" y="0"  font-family="Verdana" font-size="20">pretty,&#160;relaxation,&#160;gentleness</text>
            </g>
            <rect x="388" y="505" width="89" height="31" fill=" none " />
            <g transform="translate(392, 525)" text-anchor="start">
                <text x="0" y="0"  font-family="Verdana" font-size="20">settling</text>
            </g>
            <line x1="471"  y1="505" x2="683" y2="505" style="stroke:#F04500;stroke-width:3;" />
            <line x1="394"  y1="532" x2="461" y2="532" style="stroke:#F04500;stroke-width:3;" />
</g>
</svg>
