<?xml version="1.0" standalone="no"  ?>
<!DOCTYPE svg PUBLIC "-//W3C//DTD SVG 1.1//EN"
 "http://www.w3.org/Graphics/SVG/1.1/DTD/svg11.dtd">
<svg width="720" height="540" background-color="#FFFFFF" Encoding="UTF-8" xmlns="http://www.w3.org/2000/svg" xmlns:xlink = "http://www.w3.org/1999/xlink">
"type":"AnimEffectWipe","speed":"500"
                        <g id="groupstart">
            <rect x="393" y="29" width="36" height="162" fill=" none " />
            <g transform="translate(411, 122)" text-anchor="middle">
                <text x="0" y="0"  font-family="Verdana" font-size="18">level&#160;of&#160;tiredness</text>
            </g>
            <rect x="513" y="253" width="144" height="29" fill=" none " />
            <g transform="translate(585, 279.5)" text-anchor="middle">
                <text x="0" y="0"  font-family="Verdana" font-size="18">blinking&#160;signal</text>
            </g>
            <rect x="672" y="253" width="38" height="29" fill=" none " />
            <g transform="translate(676, 279.5)" text-anchor="start">
                <text x="0" y="0"  font-family="Verdana" font-size="18">Hz</text>
            </g>
            <rect x="423" y="9" width="292" height="216" fill="#808080" />
            <rect x="426" y="12" width="286" height="210" fill=" none " />
            <line x1="426"  y1="110" x2="712" y2="110" style="stroke:#808080;stroke-width:3;" />
            <rect x="454" y="220" width="26" height="29" fill=" none " />
            <g transform="translate(458, 246.5)" text-anchor="start">
                <text x="0" y="0"  font-family="Verdana" font-size="18">5</text>
            </g>
            <rect x="499" y="220" width="38" height="29" fill=" none " />
            <g transform="translate(503, 246.5)" text-anchor="start">
                <text x="0" y="0"  font-family="Verdana" font-size="18">10</text>
            </g>
            <rect x="554" y="220" width="38" height="29" fill=" none " />
            <g transform="translate(558, 246.5)" text-anchor="start">
                <text x="0" y="0"  font-family="Verdana" font-size="18">15</text>
            </g>
            <rect x="609" y="220" width="38" height="29" fill=" none " />
            <g transform="translate(613, 246.5)" text-anchor="start">
                <text x="0" y="0"  font-family="Verdana" font-size="18">20</text>
            </g>
            <rect x="664" y="220" width="38" height="29" fill=" none " />
            <g transform="translate(668, 246.5)" text-anchor="start">
                <text x="0" y="0"  font-family="Verdana" font-size="18">25</text>
            </g>
            <rect x="615" y="33" width="82" height="50" fill=" none " />
            <g transform="translate(619, 70)" text-anchor="start">
                <text x="0" y="0"  font-family="Verdana" font-size="18">area&#160;of</text>
                <text x="0" y="22"  font-family="Verdana" font-size="18">&#160;&#160;movie</text>
            </g>
            <line x1="426"  y1="60" x2="621" y2="60" style="stroke:#808080;stroke-width:3;" />
            <line x1="427"  y1="162" x2="713" y2="162" style="stroke:#808080;stroke-width:3;" />
            <rect x="513" y="45" width="25" height="176" fill="#FCBB04" />
            <rect x="569" y="13" width="25" height="209" fill="#FCBB04" />
            <rect x="625" y="166" width="25" height="56" fill="#FCBB04" />
            <rect x="462" y="134" width="25" height="88" fill="#FCBB04" />
            <rect x="675" y="194" width="25" height="28" fill="#FCBB04" />
            <rect x="501" y="101" width="26" height="120" fill="#3333CC" />
            <rect x="558" y="114" width="26" height="107" fill="#3333CC" />
            <rect x="615" y="175" width="26" height="46" fill="#3333CC" />
            <rect x="449" y="182" width="26" height="39" fill="#3333CC" />
            <rect x="666" y="206" width="26" height="15" fill="#3333CC" />
            <rect x="597" y="112" width="113" height="29" fill=" none " />
            <g transform="translate(653.5, 138.5)" text-anchor="middle">
                <text x="0" y="0"  font-family="Verdana" font-size="18">with&#160;sound</text>
            </g>
            <line x1="574"  y1="145" x2="605" y2="168" style="stroke:#000000;stroke-width:3;" />
</g>
</svg>
