<?xml version="1.0" standalone="no"  ?>
<!DOCTYPE svg PUBLIC "-//W3C//DTD SVG 1.1//EN"
 "http://www.w3.org/Graphics/SVG/1.1/DTD/svg11.dtd">
<svg width="720" height="540" background-color="#FFFFFF" Encoding="UTF-8" xmlns="http://www.w3.org/2000/svg" xmlns:xlink = "http://www.w3.org/1999/xlink">
"type":"AnimEffectWipe","speed":"500"
                        <g id="groupstart">
            <rect x="24" y="246" width="666" height="31" fill="#F6EEB6" />
            <rect x="30" y="247" width="675" height="24" fill=" none " />
            <g transform="translate(34, 267)" text-anchor="start">
                <text x="0" y="0" fill="#800000" font-family="Verdana" font-size="16">The&#160;cause&#160;is&#160;felt&#160;one&#160;at&#160;the&#160;time&#160;of&#160;the&#160;emotions&#160;caused&#160;by&#160;many&#160;causes.</text>
            </g>
            <rect x="19" y="278" width="162" height="26" fill=" none " />
            <g transform="translate(23, 298)" text-anchor="start">
                <text x="0" y="0"  font-family="Verdana" font-size="16">Experiment&#160;at&#160;a</text>
            </g>
            <rect x="19" y="329" width="144" height="26" fill=" none " />
            <g transform="translate(23, 349)" text-anchor="start">
                <text x="0" y="0"  font-family="Verdana" font-size="16">(Dutton&#160;&amp;&#160;Aron)</text>
            </g>
                <image x="60" y="372" width="283px" height="162px" xlink:href="./img/5_34.gif"/>
            <rect x="167" y="382" width="127" height="22" fill="#FFFFFF" />
            <g transform="translate(171, 402)" text-anchor="start">
                <text x="0" y="0"  font-family="Verdana" font-size="14">sexual&#160;arousal</text>
            </g>
                <image x="383" y="371" width="283px" height="162px" xlink:href="./img/5_36.gif"/>
            <rect x="534" y="487" width="117" height="29" fill="#FFFFFF" />
            <rect x="468" y="382" width="127" height="22" fill="#FFFFFF" />
            <g transform="translate(472, 402)" text-anchor="start">
                <text x="0" y="0"  font-family="Verdana" font-size="14">sexual&#160;arousal</text>
            </g>
            <rect x="18" y="298" width="162" height="26" fill=" none " />
            <g transform="translate(22, 318)" text-anchor="start">
                <text x="0" y="0"  font-family="Verdana" font-size="16">wire&#160;cable&#160;bridge</text>
            </g>
            <rect x="542" y="483" width="92" height="24" fill=" none " />
            <g transform="translate(588, 503)" text-anchor="middle">
                <text x="0" y="0" fill="#800000" font-family="Verdana" font-size="14">excitement</text>
            </g>
            <rect x="543" y="496" width="86" height="24" fill=" none " />
            <g transform="translate(586, 516)" text-anchor="middle">
                <text x="0" y="0" fill="#800000" font-family="Verdana" font-size="14">by&#160;danger</text>
            </g>
            <rect x="180" y="282" width="452" height="24" fill=" none " />
            <g transform="translate(184, 302)" text-anchor="start">
                <text x="0" y="0"  font-family="Verdana" font-size="16">A&#160;man&#160;who&#160;meets&#160;a&#160;woman&#160;on&#160;dangerous&#160;suspended&#160;</text>
            </g>
            <rect x="180" y="307" width="523" height="24" fill=" none " />
            <g transform="translate(184, 327)" text-anchor="start">
                <text x="0" y="0"  font-family="Verdana" font-size="16">bridge&#160;feels&#160;a&#160;dangerous&#160;excitement&#160;besides&#160;a&#160;sexual&#160;emotion.</text>
            </g>
            <rect x="180" y="332" width="522" height="24" fill=" none " />
            <g transform="translate(184, 352)" text-anchor="start">
                <text x="0" y="0"  font-family="Verdana" font-size="16">He&#160;mistakes&#160;that&#160;he&#160;had&#160;gotten&#160;sexual&#160;emotion&#160;more&#160;strongly.</text>
            </g>
</g>
</svg>
