<?xml version="1.0" standalone="no"  ?>
<!DOCTYPE svg PUBLIC "-//W3C//DTD SVG 1.1//EN"
 "http://www.w3.org/Graphics/SVG/1.1/DTD/svg11.dtd">
<svg width="720" height="540" background-color="#FFFFFF" Encoding="UTF-8" xmlns="http://www.w3.org/2000/svg" xmlns:xlink = "http://www.w3.org/1999/xlink">
"type":"AnimEffectWipe","speed":"500"
                        <g id="groupstart">
            <rect x="280" y="510" width="95" height="31" fill=" none " />
            <rect x="611" y="500" width="94" height="31" fill=" none " />
            <rect x="573" y="380" width="72" height="88" fill="#E240E2" />
            <g  transform="rotate(270,608.5,460)">
            <line x1="599"  y1="460" x2="618" y2="460" style="stroke:#000000;stroke-width:3;" />
            </g>
            <line x1="518"  y1="470" x2="684" y2="470" style="stroke:#000000;stroke-width:3;" />
            <rect x="561" y="502" width="150" height="22" fill=" none " />
            <g transform="translate(565, 522)" text-anchor="start">
                <text x="0" y="0" fill="#6E015A" font-family="Verdana" font-size="18">Wide&#160;band&#160;noise</text>
            </g>
            <line x1="621"  y1="461" x2="646" y2="498" style="stroke:#6E015A;stroke-width:2.25;" />
            <line x1="258"  y1="380" x2="414" y2="380" style="stroke:#962A0C;stroke-width:1.5;" />
            <line x1="431"  y1="380" x2="587" y2="380" style="stroke:#962A0C;stroke-width:1.5;" />
            <rect x="608" y="305" width="28" height="36" fill=" none " />
            <rect x="606" y="305" width="34" height="36" fill=" none " />
            <g transform="translate(623, 325)" text-anchor="middle">
                <text x="0" y="0" fill="#003300" font-family="Verdana" font-size="24">=</text>
            </g>
            <rect x="582" y="309" width="34" height="31" fill=" none " />
            <g transform="translate(599, 329)" text-anchor="middle">
                <text x="0" y="0" fill="#003300" font-family="Verdana" font-size="20">m</text>
            </g>
            <line x1="610"  y1="340" x2="625" y2="353" style="stroke:#3333CC;stroke-width:1.5;" />
            <rect x="627" y="306" width="75" height="31" fill=" none " />
            <g transform="translate(664.5, 326)" text-anchor="middle">
                <text x="0" y="0" fill="#003300" font-family="Verdana" font-size="20">const.</text>
            </g>
            <line x1="504"  y1="354" x2="594" y2="354" style="stroke:#0D017F;stroke-width:1.5;" />
            <line x1="404"  y1="477" x2="404" y2="495" style="stroke:#A60043;stroke-width:1.5;" />
            <line x1="434"  y1="477" x2="434" y2="495" style="stroke:#A60043;stroke-width:1.5;" />
            <rect x="405" y="464" width="21" height="31" fill=" none " />
            <g  transform="rotate(270,419,491.5)">
            <line x1="419"  y1="476" x2="419" y2="507" style="stroke:#A60043;stroke-width:1;" />
            </g>
            <rect x="430" y="479" width="35" height="31" fill=" none " />
            <rect x="453" y="479" width="22" height="31" fill=" none " />
            <g transform="translate(464, 499)" text-anchor="middle">
                <text x="0" y="0" fill="#A70043" font-family="Verdana" font-size="20">f</text>
            </g>
            <rect x="463" y="481" width="24" height="29" fill=" none " />
            <g transform="translate(475, 501)" text-anchor="middle">
                <text x="0" y="0" fill="#A70043" font-family="Verdana" font-size="18">c</text>
            </g>
            <rect x="489" y="416" width="32" height="29" fill=" none " />
            <g transform="translate(505, 436)" text-anchor="middle">
                <text x="0" y="0" fill="#003300" font-family="Verdana" font-size="18">m</text>
            </g>
            <line x1="74"  y1="358" x2="88" y2="379" style="stroke:#005058;stroke-width:1.5;" />
            <rect x="39" y="332" width="50" height="22" fill=" none " />
            <g transform="translate(43, 352)" text-anchor="start">
                <text x="0" y="0" fill="#005058" font-family="Verdana" font-size="18">Beats</text>
            </g>
            <line x1="98"  y1="380" x2="98" y2="468" style="stroke:#FF03FF;stroke-width:4.5;" />
            <line x1="44"  y1="470" x2="158" y2="470" style="stroke:#000000;stroke-width:3;" />
            <rect x="82" y="467" width="22" height="31" fill=" none " />
            <g transform="translate(93, 487)" text-anchor="middle">
                <text x="0" y="0" fill="#660066" font-family="Verdana" font-size="20">f</text>
            </g>
            <rect x="92" y="470" width="25" height="29" fill=" none " />
            <g transform="translate(104.5, 490)" text-anchor="middle">
                <text x="0" y="0" fill="#660066" font-family="Verdana" font-size="18">o</text>
            </g>
            <rect x="62" y="491" width="87" height="22" fill=" none " />
            <g transform="translate(66, 511)" text-anchor="start">
                <text x="0" y="0" fill="#6E015A" font-family="Verdana" font-size="18">Pure&#160;tone</text>
            </g>
            <g  transform="rotate(180,156,394)">
            <line x1="156"  y1="379" x2="156" y2="409" style="stroke:#003300;stroke-width:0.75;" />
            </g>
            <g  transform="rotate(180,156,453)">
            <line x1="156"  y1="438" x2="156" y2="468" style="stroke:#003300;stroke-width:0.75;" />
            </g>
            <line x1="102"  y1="380" x2="162" y2="380" style="stroke:#962A0C;stroke-width:1.5;" />
            <rect x="142" y="410" width="26" height="31" fill=" none " />
            <g transform="translate(155, 430)" text-anchor="middle">
                <text x="0" y="0" fill="#003300" font-family="Symbol" font-size="20">b</text>
            </g>
            <rect x="568" y="300" width="28" height="36" fill=" none " />
            <g transform="translate(582, 320)" text-anchor="middle">
                <text x="0" y="0" fill="#003300" font-family="Symbol" font-size="24">b</text>
            </g>
            <rect x="430" y="477" width="42" height="31" fill=" none " />
            <g transform="translate(451, 497)" text-anchor="middle">
                <text x="0" y="0" fill="#A70043" font-family="Symbol" font-size="20">D</text>
            </g>
            <line x1="217"  y1="446" x2="397" y2="509" style="stroke:#0000BA;stroke-width:2.25;" />
            <rect x="404" y="380" width="30" height="88" fill="#E240E2" />
            <line x1="356"  y1="470" x2="492" y2="470" style="stroke:#000000;stroke-width:3;" />
            <g  transform="rotate(270,419.5,459)">
            <line x1="410"  y1="459" x2="429" y2="459" style="stroke:#000000;stroke-width:3;" />
            </g>
            <g  transform="rotate(180,494,381)">
            <line x1="494"  y1="353" x2="494" y2="409" style="stroke:#003300;stroke-width:0.75;" />
            </g>
            <g  transform="rotate(180,494,453)">
            <line x1="494"  y1="438" x2="494" y2="468" style="stroke:#003300;stroke-width:0.75;" />
            </g>
            <line x1="336"  y1="353" x2="504" y2="353" style="stroke:#0D017F;stroke-width:1.5;" />
            <rect x="480" y="406" width="26" height="31" fill=" none " />
            <g transform="translate(493, 426)" text-anchor="middle">
                <text x="0" y="0" fill="#003300" font-family="Symbol" font-size="20">b</text>
            </g>
            <line x1="338"  y1="445" x2="413" y2="510" style="stroke:#6E015A;stroke-width:2.25;" />
            <rect x="157" y="509" width="122" height="22" fill=" none " />
            <g transform="translate(161, 529)" text-anchor="start">
                <text x="0" y="0" fill="#000064" font-family="Verdana" font-size="18">Masking&#160;zone</text>
            </g>
            <rect x="297" y="510" width="100" height="22" fill=" none " />
            <g transform="translate(301, 530)" text-anchor="start">
                <text x="0" y="0" fill="#6E015A" font-family="Verdana" font-size="18">Band&#160;noise</text>
            </g>
            <rect x="153" y="510" width="109" height="31" fill=" none " />
            <line x1="217"  y1="453" x2="235" y2="509" style="stroke:#0000BA;stroke-width:2.25;" />
            <rect x="246" y="380" width="13" height="89" fill="#E240E2" />
            <line x1="194"  y1="470" x2="312" y2="470" style="stroke:#000000;stroke-width:3;" />
            <g  transform="rotate(270,252.5,460)">
            <line x1="243"  y1="460" x2="262" y2="460" style="stroke:#000000;stroke-width:3;" />
            </g>
            <rect x="157" y="413" width="26" height="29" fill=" none " />
            <g transform="translate(170, 433)" text-anchor="middle">
                <text x="0" y="0" fill="#003300" font-family="Verdana" font-size="18">n</text>
            </g>
            <line x1="232"  y1="329" x2="333" y2="354" style="stroke:#B64E00;stroke-width:2.25;" />
            <line x1="183"  y1="329" x2="231" y2="366" style="stroke:#B64E00;stroke-width:2.25;" />
            <rect x="188" y="305" width="86" height="24" fill=" none " />
            <g transform="translate(192, 325)" text-anchor="start">
                <text x="0" y="0" fill="#803700" font-family="Verdana" font-size="20">Increase</text>
            </g>
            <line x1="162"  y1="381" x2="252" y2="381" style="stroke:#962A0C;stroke-width:1.5;" />
            <g  transform="rotate(180,311,389)">
            <line x1="311"  y1="367" x2="311" y2="411" style="stroke:#003300;stroke-width:0.75;" />
            </g>
            <g  transform="rotate(180,311,454)">
            <line x1="311"  y1="439" x2="311" y2="469" style="stroke:#003300;stroke-width:0.75;" />
            </g>
            <line x1="178"  y1="369" x2="326" y2="369" style="stroke:#0D017F;stroke-width:1.5;" />
            <rect x="298" y="409" width="26" height="31" fill=" none " />
            <g transform="translate(311, 429)" text-anchor="middle">
                <text x="0" y="0" fill="#003300" font-family="Symbol" font-size="20">b</text>
            </g>
            <line x1="250"  y1="436" x2="337" y2="511" style="stroke:#6E015A;stroke-width:2.25;" />
            <line x1="120"  y1="455" x2="217" y2="509" style="stroke:#0000BA;stroke-width:2.25;" />
</g>
</svg>
