<?xml version="1.0" standalone="no"  ?>
<!DOCTYPE svg PUBLIC "-//W3C//DTD SVG 1.1//EN"
 "http://www.w3.org/Graphics/SVG/1.1/DTD/svg11.dtd">
<svg width="720" height="540" background-color="#FFFFFF" Encoding="UTF-8" xmlns="http://www.w3.org/2000/svg" xmlns:xlink = "http://www.w3.org/1999/xlink">
"type":"AnimEffectWipe","speed":"500"
                        <g id="groupstart">
            <rect x="390" y="31" width="309" height="202" fill="#FFFFFF" />
            <rect x="677" y="53" width="10" height="88" fill="#FFFFFF" />
            <rect x="618" y="37" width="15" height="75" fill="#FFFFFF" />
            <rect x="525" y="36" width="21" height="65" fill="#FFFFFF" />
            <rect x="548" y="33" width="70" height="31" fill=" none " />
            <g transform="translate(552, 53)" text-anchor="start">
                <text x="0" y="0"  font-family="Verdana" font-size="20">Beats</text>
            </g>
            <rect x="544" y="165" width="153" height="31" fill="#FFFFFF" />
            <g transform="translate(548, 185)" text-anchor="start">
                <text x="0" y="0"  font-family="Verdana" font-size="20">masking&#160;zone</text>
            </g>
            <line x1="536"  y1="52" x2="536" y2="231" style="stroke:#FF03FF;stroke-width:4;" />
            <line x1="390"  y1="29" x2="390" y2="230" style="stroke:#002448;stroke-width:1.5;" />
            <line x1="390"  y1="186" x2="409" y2="186" style="stroke:#002448;stroke-width:1.5;" />
            <line x1="390"  y1="144" x2="409" y2="144" style="stroke:#002448;stroke-width:1.5;" />
            <line x1="390"  y1="103" x2="409" y2="103" style="stroke:#002448;stroke-width:1.5;" />
            <line x1="390"  y1="52" x2="409" y2="52" style="stroke:#002448;stroke-width:1.5;" />
            <rect x="358" y="38" width="38" height="29" fill=" none " />
            <g transform="translate(362, 58)" text-anchor="start">
                <text x="0" y="0"  font-family="Verdana" font-size="18">80</text>
            </g>
            <rect x="358" y="89" width="38" height="29" fill=" none " />
            <g transform="translate(362, 109)" text-anchor="start">
                <text x="0" y="0"  font-family="Verdana" font-size="18">60</text>
            </g>
            <rect x="358" y="130" width="38" height="29" fill=" none " />
            <g transform="translate(362, 150)" text-anchor="start">
                <text x="0" y="0"  font-family="Verdana" font-size="18">40</text>
            </g>
            <rect x="358" y="172" width="38" height="29" fill=" none " />
            <g transform="translate(362, 192)" text-anchor="start">
                <text x="0" y="0"  font-family="Verdana" font-size="18">20</text>
            </g>
            <g  transform="rotate(270,349.5,143.5)">
            <rect x="246" y="128" width="207" height="31" fill=" none " />
            <g transform="translate(250, 148)" text-anchor="start">
                <text x="0" y="0"  font-family="Verdana" font-size="20">Sensation&#160;level
                 <tspan   font-family="Verdana" font-size="18">(dB)</tspan></text>
            </g>
            </g>
            <rect x="369" y="231" width="49" height="29" fill=" none " />
            <g transform="translate(373, 251)" text-anchor="start">
                <text x="0" y="0"  font-family="Verdana" font-size="18">400</text>
            </g>
            <rect x="462" y="231" width="49" height="29" fill=" none " />
            <g transform="translate(466, 251)" text-anchor="start">
                <text x="0" y="0"  font-family="Verdana" font-size="18">800</text>
            </g>
            <rect x="513" y="231" width="55" height="29" fill=" none " />
            <g transform="translate(517, 251)" text-anchor="start">
                <text x="0" y="0"  font-family="Verdana" font-size="18">1.2k</text>
            </g>
            <rect x="589" y="231" width="37" height="29" fill=" none " />
            <g transform="translate(593, 251)" text-anchor="start">
                <text x="0" y="0"  font-family="Verdana" font-size="18">2k</text>
            </g>
            <rect x="643" y="231" width="37" height="29" fill=" none " />
            <g transform="translate(647, 251)" text-anchor="start">
                <text x="0" y="0"  font-family="Verdana" font-size="18">3k</text>
            </g>
            <rect x="682" y="231" width="37" height="29" fill=" none " />
            <g transform="translate(686, 251)" text-anchor="start">
                <text x="0" y="0"  font-family="Verdana" font-size="18">4k</text>
            </g>
            <rect x="545" y="248" width="166" height="36" fill=" none " />
            <g transform="translate(549, 268)" text-anchor="start">
                <text x="0" y="0"  font-family="Verdana" font-size="20">Frequency
                 <tspan   font-family="Verdana" font-size="24">&#160;</tspan>
                 <tspan   font-family="Verdana" font-size="18">(Hz)</tspan></text>
            </g>
            <line x1="445"  y1="213" x2="445" y2="230" style="stroke:#002448;stroke-width:1.5;" />
            <line x1="482"  y1="213" x2="482" y2="230" style="stroke:#002448;stroke-width:1.5;" />
            <line x1="513"  y1="213" x2="513" y2="230" style="stroke:#002448;stroke-width:1.5;" />
            <line x1="574"  y1="213" x2="574" y2="230" style="stroke:#002448;stroke-width:1.5;" />
            <line x1="605"  y1="213" x2="605" y2="230" style="stroke:#002448;stroke-width:1.5;" />
            <line x1="631"  y1="213" x2="631" y2="230" style="stroke:#002448;stroke-width:1.5;" />
            <line x1="660"  y1="213" x2="660" y2="230" style="stroke:#002448;stroke-width:1.5;" />
            <line x1="681"  y1="213" x2="681" y2="230" style="stroke:#002448;stroke-width:1.5;" />
            <line x1="700"  y1="213" x2="700" y2="230" style="stroke:#002448;stroke-width:1.5;" />
            <line x1="390"  y1="232" x2="698" y2="232" style="stroke:#002448;stroke-width:1.5;" />
            <rect x="410" y="36" width="86" height="31" fill=" none " />
            <g transform="translate(414, 56)" text-anchor="start">
                <text x="0" y="0"  font-family="Verdana" font-size="20">Masker</text>
            </g>
            <rect x="428" y="60" width="68" height="29" fill=" none " />
            <g transform="translate(432, 80)" text-anchor="start">
                <text x="0" y="0"  font-family="Verdana" font-size="18">80&#160;dB</text>
            </g>
            <line x1="495"  y1="62" x2="534" y2="77" style="stroke:#6E015A;stroke-width:1.5;" />
</g>
</svg>
