<?xml version="1.0" standalone="no"  ?>
<!DOCTYPE svg PUBLIC "-//W3C//DTD SVG 1.1//EN"
 "http://www.w3.org/Graphics/SVG/1.1/DTD/svg11.dtd">
<svg width="720" height="540" background-color="#FFFFFF" Encoding="UTF-8" xmlns="http://www.w3.org/2000/svg" xmlns:xlink = "http://www.w3.org/1999/xlink">
                        <g id="groupstart">
            <rect x="38" y="416" width="293" height="102" fill="#F6D6D9" />
            <rect x="42" y="413" width="234" height="36" fill=" none " />
            <g transform="translate(46, 433)" text-anchor="start">
                <text x="0" y="0"  font-family="Times New Roman" font-size="24">Ｆ&#160;&#160;&#160;
                 <tspan   font-family="Times New Roman" font-size="24">＝</tspan>
                 <tspan   font-family="Times New Roman" font-size="24">Ａ　Ｉ</tspan>
                 <tspan   font-family="Times New Roman" font-size="24">　</tspan>
                 <tspan   font-family="Times New Roman" font-size="24">－Ａ&#160;&#160;&#160;&#160;Ｅ</tspan></text>
            </g>
            <rect x="56" y="421" width="27" height="31" fill=" none " />
            <g transform="translate(60, 441)" text-anchor="start">
                <text x="0" y="0"  font-family="Times New Roman" font-size="20">ｄ</text>
            </g>
            <rect x="220" y="417" width="32" height="36" fill=" none " />
            <g transform="translate(224, 437)" text-anchor="start">
                <text x="0" y="0"  font-family="Times New Roman" font-size="24">ｎ</text>
            </g>
            <rect x="262" y="417" width="32" height="36" fill=" none " />
            <g transform="translate(266, 437)" text-anchor="start">
                <text x="0" y="0"  font-family="Times New Roman" font-size="24">ｎ</text>
            </g>
            <rect x="122" y="421" width="27" height="31" fill=" none " />
            <g transform="translate(126, 441)" text-anchor="start">
                <text x="0" y="0"  font-family="Times New Roman" font-size="20">ｄ</text>
            </g>
            <rect x="156" y="421" width="27" height="31" fill=" none " />
            <g transform="translate(160, 441)" text-anchor="start">
                <text x="0" y="0"  font-family="Times New Roman" font-size="20">ｄ</text>
            </g>
            <rect x="42" y="445" width="190" height="41" fill=" none " />
            <g transform="translate(46, 465)" text-anchor="start">
                <text x="0" y="0"  font-family="Times New Roman" font-size="24">Ｖ＝－Ｙ　Ｅ　
                 <tspan   font-family="Times New Roman" font-size="28">/</tspan>
                 <tspan   font-family="Times New Roman" font-size="24">Ａ</tspan></text>
            </g>
            <rect x="124" y="453" width="32" height="36" fill=" none " />
            <g transform="translate(128, 473)" text-anchor="start">
                <text x="0" y="0"  font-family="Times New Roman" font-size="24">ｎ</text>
            </g>
            <rect x="166" y="453" width="32" height="36" fill=" none " />
            <g transform="translate(170, 473)" text-anchor="start">
                <text x="0" y="0"  font-family="Times New Roman" font-size="24">ｎ</text>
            </g>
            <rect x="220" y="453" width="32" height="36" fill=" none " />
            <g transform="translate(224, 473)" text-anchor="start">
                <text x="0" y="0"  font-family="Times New Roman" font-size="24">ｎ</text>
            </g>
            <rect x="42" y="485" width="28" height="36" fill=" none " />
            <g transform="translate(46, 505)" text-anchor="start">
                <text x="0" y="0"  font-family="Times New Roman" font-size="24">ｚ</text>
            </g>
            <rect x="72" y="481" width="259" height="41" fill=" none " />
            <g transform="translate(76, 501)" text-anchor="start">
                <text x="0" y="0"  font-family="Times New Roman" font-size="24">＝A　A　I　
                 <tspan   font-family="Times New Roman" font-size="28">/</tspan>
                 <tspan   font-family="Times New Roman" font-size="24">(Ｅ　Ｙ　)</tspan></text>
            </g>
            <rect x="148" y="489" width="32" height="36" fill=" none " />
            <g transform="translate(152, 509)" text-anchor="start">
                <text x="0" y="0"  font-family="Times New Roman" font-size="24">ｎ</text>
            </g>
            <rect x="108" y="493" width="27" height="31" fill=" none " />
            <g transform="translate(112, 513)" text-anchor="start">
                <text x="0" y="0"  font-family="Times New Roman" font-size="20">ｄ</text>
            </g>
            <rect x="186" y="493" width="27" height="31" fill=" none " />
            <g transform="translate(190, 513)" text-anchor="start">
                <text x="0" y="0"  font-family="Times New Roman" font-size="20">ｄ</text>
            </g>
            <rect x="244" y="489" width="32" height="36" fill=" none " />
            <g transform="translate(248, 509)" text-anchor="start">
                <text x="0" y="0"  font-family="Times New Roman" font-size="24">ｎ</text>
            </g>
            <rect x="286" y="489" width="32" height="36" fill=" none " />
            <g transform="translate(290, 509)" text-anchor="start">
                <text x="0" y="0"  font-family="Times New Roman" font-size="24">ｎ</text>
            </g>
</g>
</svg>
