<?xml version="1.0" standalone="no"  ?>
<!DOCTYPE svg PUBLIC "-//W3C//DTD SVG 1.1//EN"
 "http://www.w3.org/Graphics/SVG/1.1/DTD/svg11.dtd">
<svg width="720" height="540" background-color="#FFFFFF" Encoding="UTF-8" xmlns="http://www.w3.org/2000/svg" xmlns:xlink = "http://www.w3.org/1999/xlink">
"type":"AnimEffectWipe","speed":"500"
                        <g id="groupstart">
            <rect x="70" y="401" width="251" height="52" fill="#FFFFFF" />
            <rect x="89" y="403" width="26" height="36" fill=" none " />
            <g transform="translate(93, 423)" text-anchor="start">
                <text x="0" y="0"  font-family="Times New Roman" font-size="24">ｒ</text>
            </g>
            <rect x="106" y="408" width="28" height="36" fill=" none " />
            <g transform="translate(110, 428)" text-anchor="start">
                <text x="0" y="0"  font-family="Times New Roman" font-size="24">=</text>
            </g>
            <rect x="124" y="398" width="29" height="31" fill=" none " />
            <g transform="translate(128, 418)" text-anchor="start">
                <text x="0" y="0"  font-family="Times New Roman" font-size="20">Ｆ</text>
            </g>
            <rect x="239" y="405" width="52" height="36" fill=" none " />
            <g transform="translate(243, 425)" text-anchor="start">
                <text x="0" y="0"  font-family="Times New Roman" font-size="24">ρｃ</text>
            </g>
            <rect x="123" y="423" width="31" height="31" fill=" none " />
            <g transform="translate(127, 443)" text-anchor="start">
                <text x="0" y="0"  font-family="Times New Roman" font-size="20">Ｖ</text>
            </g>
            <rect x="124" y="409" width="36" height="36" fill=" none " />
            <g transform="translate(128, 429)" text-anchor="start">
                <text x="0" y="0"  font-family="Times New Roman" font-size="24">－</text>
            </g>
            <rect x="139" y="403" width="24" height="31" fill=" none " />
            <g transform="translate(143, 423)" text-anchor="start">
                <text x="0" y="0"  font-family="Times New Roman" font-size="20">o</text>
            </g>
            <rect x="139" y="427" width="24" height="31" fill=" none " />
            <g transform="translate(143, 447)" text-anchor="start">
                <text x="0" y="0"  font-family="Times New Roman" font-size="20">o</text>
            </g>
            <rect x="154" y="408" width="28" height="36" fill=" none " />
            <g transform="translate(158, 428)" text-anchor="start">
                <text x="0" y="0"  font-family="Times New Roman" font-size="24">=</text>
            </g>
            <rect x="161" y="410" width="34" height="31" fill=" none " />
            <g transform="translate(165, 430)" text-anchor="start">
                <text x="0" y="0"  font-family="Times New Roman" font-size="20">（</text>
            </g>
            <rect x="181" y="409" width="36" height="36" fill=" none " />
            <g transform="translate(185, 429)" text-anchor="start">
                <text x="0" y="0"  font-family="Times New Roman" font-size="24">－</text>
            </g>
            <rect x="181" y="398" width="28" height="31" fill=" none " />
            <g transform="translate(185, 418)" text-anchor="start">
                <text x="0" y="0"  font-family="Times New Roman" font-size="20">Ｓ</text>
            </g>
            <rect x="181" y="424" width="28" height="31" fill=" none " />
            <g transform="translate(185, 444)" text-anchor="start">
                <text x="0" y="0"  font-family="Times New Roman" font-size="20">Ｓ</text>
            </g>
            <rect x="197" y="403" width="24" height="31" fill=" none " />
            <g transform="translate(201, 423)" text-anchor="start">
                <text x="0" y="0"  font-family="Times New Roman" font-size="20">o</text>
            </g>
            <rect x="197" y="428" width="24" height="29" fill=" none " />
            <g transform="translate(201, 448)" text-anchor="start">
                <text x="0" y="0"  font-family="Times New Roman" font-size="18">1</text>
            </g>
            <rect x="208" y="410" width="34" height="31" fill=" none " />
            <g transform="translate(212, 430)" text-anchor="start">
                <text x="0" y="0"  font-family="Times New Roman" font-size="20">）</text>
            </g>
            <rect x="215" y="397" width="24" height="29" fill=" none " />
            <g transform="translate(219, 417)" text-anchor="start">
                <text x="0" y="0"  font-family="Times New Roman" font-size="18">2</text>
            </g>
            <rect x="218" y="412" width="28" height="31" fill=" none " />
            <g transform="translate(222, 432)" text-anchor="start">
                <text x="0" y="0"  font-family="Times New Roman" font-size="20">Ｓ</text>
            </g>
            <rect x="233" y="418" width="24" height="29" fill=" none " />
            <g transform="translate(237, 438)" text-anchor="start">
                <text x="0" y="0"  font-family="Times New Roman" font-size="18">1</text>
            </g>
            <rect x="9" y="454" width="314" height="36" fill=" none " />
            <g transform="translate(13, 474)" text-anchor="start">
                <text x="0" y="0"  font-family="Times New Roman" font-size="24">空室があると（
                 <tspan   font-family="Times New Roman" font-size="24">Ｓ</tspan>
                 <tspan   font-family="Times New Roman" font-size="24">　</tspan>
                 <tspan   font-family="Times New Roman" font-size="24">Ｓ</tspan>
                 <tspan   font-family="Times New Roman" font-size="24">&#160;&#160;）倍に</tspan></text>
            </g>
            <rect x="198" y="456" width="21" height="36" fill=" none " />
            <g transform="translate(202, 476)" text-anchor="start">
                <text x="0" y="0"  font-family="Times New Roman" font-size="24">/</text>
            </g>
            <rect x="187" y="462" width="24" height="31" fill=" none " />
            <g transform="translate(191, 482)" text-anchor="start">
                <text x="0" y="0"  font-family="Times New Roman" font-size="20">o</text>
            </g>
            <rect x="226" y="464" width="24" height="29" fill=" none " />
            <g transform="translate(230, 484)" text-anchor="start">
                <text x="0" y="0"  font-family="Times New Roman" font-size="18">1</text>
            </g>
            <rect x="249" y="449" width="24" height="29" fill=" none " />
            <g transform="translate(253, 469)" text-anchor="start">
                <text x="0" y="0"  font-family="Times New Roman" font-size="18">2</text>
            </g>
            <rect x="9" y="481" width="315" height="36" fill=" none " />
            <g transform="translate(13, 501)" text-anchor="start">
                <text x="0" y="0"  font-family="Times New Roman" font-size="24">ツイータと呼ばれる高音専用</text>
            </g>
            <rect x="9" y="507" width="283" height="36" fill=" none " />
            <g transform="translate(13, 527)" text-anchor="start">
                <text x="0" y="0"  font-family="Times New Roman" font-size="24">スピーカとして用いられる</text>
            </g>
</g>
</svg>
