<?xml version="1.0" standalone="no"  ?>
<!DOCTYPE svg PUBLIC "-//W3C//DTD SVG 1.1//EN"
 "http://www.w3.org/Graphics/SVG/1.1/DTD/svg11.dtd">
<svg width="720" height="540" background-color="#FFFFFF" Encoding="UTF-8" xmlns="http://www.w3.org/2000/svg" xmlns:xlink = "http://www.w3.org/1999/xlink">
                        <g id="groupstart">
            <g  transform="rotate(270,632.5,344.5)">
            <line x1="616"  y1="342" x2="649" y2="347" style="stroke:#000000;stroke-width:1;" />
            </g>
            <rect x="504" y="294" width="71" height="31" fill=" none " />
            <g transform="translate(508, 314)" text-anchor="start">
                <text x="0" y="0"  font-family="Times New Roman" font-size="20">コーン</text>
            </g>
            <rect x="461" y="274" width="69" height="31" fill=" none " />
            <g transform="translate(465, 294)" text-anchor="start">
                <text x="0" y="0"  font-family="Times New Roman" font-size="20">エッジ</text>
            </g>
            <g  transform="rotate(270,482,318)">
            <line x1="467"  y1="310" x2="497" y2="326" style="stroke:#000000;stroke-width:1;" />
            </g>
            <g  transform="rotate(270,520,340.5)">
            <line x1="501"  y1="331" x2="539" y2="350" style="stroke:#000000;stroke-width:1;" />
            </g>
            <rect x="534" y="324" width="93" height="31" fill=" none " />
            <g transform="translate(538, 344)" text-anchor="start">
                <text x="0" y="0"  font-family="Times New Roman" font-size="20">ダンパー</text>
            </g>
            <g  transform="rotate(270,560.5,373.5)">
            <line x1="535"  y1="361" x2="586" y2="386" style="stroke:#000000;stroke-width:1;" />
            </g>
            <rect x="600" y="307" width="67" height="31" fill=" none " />
            <g transform="translate(604, 327)" text-anchor="start">
                <text x="0" y="0"  font-family="Times New Roman" font-size="20">リード</text>
            </g>
            <rect x="669" y="379" width="54" height="31" fill=" none " />
            <g transform="translate(673, 399)" text-anchor="start">
                <text x="0" y="0"  font-family="Times New Roman" font-size="20">端子</text>
            </g>
            <g  transform="rotate(90,669.5,376.5)">
            <line x1="664"  y1="367" x2="675" y2="386" style="stroke:#000000;stroke-width:1;" />
            </g>
            <rect x="653" y="442" width="69" height="31" fill=" none " />
            <g transform="translate(657, 462)" text-anchor="start">
                <text x="0" y="0"  font-family="Times New Roman" font-size="20">コイル</text>
            </g>
            <rect x="652" y="423" width="69" height="31" fill=" none " />
            <g transform="translate(656, 443)" text-anchor="start">
                <text x="0" y="0"  font-family="Times New Roman" font-size="20">ボイス</text>
            </g>
            <g  transform="rotate(90,616.5,432.5)">
            <line x1="608"  y1="399" x2="625" y2="466" style="stroke:#000000;stroke-width:1;" />
            </g>
</g>
</svg>
