<?xml version="1.0" standalone="no"  ?>
<!DOCTYPE svg PUBLIC "-//W3C//DTD SVG 1.1//EN"
 "http://www.w3.org/Graphics/SVG/1.1/DTD/svg11.dtd">
<svg width="720" height="540" background-color="#FFFFFF" Encoding="UTF-8" xmlns="http://www.w3.org/2000/svg" xmlns:xlink = "http://www.w3.org/1999/xlink">
"type":"AnimEffectWipe","speed":"500"
                        <g id="groupstart">
            <line x1="616"  y1="348" x2="640" y2="348" style="stroke:#935401;stroke-width:3;" />
            <line x1="499"  y1="325" x2="523" y2="361" style="stroke:#000000;stroke-width:1;" />
            <rect x="508" y="500" width="160" height="31" fill=" none " />
            <g transform="translate(512, 520)" text-anchor="start">
                <text x="0" y="0"  font-family="Times New Roman" font-size="20">直流バイアス&#160;
                 <tspan   font-family="Times New Roman" font-size="20">Ｅ</tspan>
                 <tspan   font-family="Times New Roman" font-size="18">ｏ</tspan></text>
            </g>
            <rect x="435" y="300" width="73" height="36" fill=" none " />
            <g transform="translate(439, 320)" text-anchor="start">
                <text x="0" y="0"  font-family="Times New Roman" font-size="20">断面&#160;
                 <tspan   font-family="Times New Roman" font-size="24">S</tspan></text>
            </g>
            <line x1="416"  y1="366" x2="433" y2="366" style="stroke:#000000;stroke-width:2;" />
            <line x1="362"  y1="366" x2="379" y2="366" style="stroke:#000000;stroke-width:2;" />
            <line x1="389"  y1="366" x2="406" y2="366" style="stroke:#000000;stroke-width:2;" />
            <line x1="370"  y1="366" x2="370" y2="389" style="stroke:#000000;stroke-width:2;" />
            <line x1="370"  y1="326" x2="370" y2="349" style="stroke:#000000;stroke-width:2;" />
            <rect x="367" y="294" width="43" height="36" fill=" none " />
            <g transform="translate(371, 314)" text-anchor="start">
                <text x="0" y="0"  font-family="Times New Roman" font-size="24">ｘ
                 <tspan   font-family="Times New Roman" font-size="18">ｏ</tspan></text>
            </g>
            <line x1="525"  y1="383" x2="525" y2="486" style="stroke:#935401;stroke-width:3;" />
            <line x1="570"  y1="470" x2="570" y2="500" style="stroke:#000082;stroke-width:2;" />
            <rect x="574.25" y="479.25" width="6.5" height="13.5" fill="#000082" />
            <rect x="575" y="480" width="5" height="12" fill="#000082" />
            <line x1="585"  y1="470" x2="585" y2="500" style="stroke:#000082;stroke-width:2;" />
            <rect x="589.25" y="479.25" width="6.5" height="13.5" fill="#000082" />
            <rect x="590" y="480" width="5" height="12" fill="#000082" />
            <line x1="525"  y1="486" x2="568" y2="486" style="stroke:#935401;stroke-width:3;" />
            <line x1="594"  y1="486" x2="642" y2="486" style="stroke:#935401;stroke-width:3;" />
            <line x1="641"  y1="442" x2="641" y2="485" style="stroke:#935401;stroke-width:3;" />
            <line x1="639"  y1="349" x2="639" y2="401" style="stroke:#935401;stroke-width:3;" />
            <rect x="441" y="361" width="126" height="10" fill="#EC00C5" />
</g>
</svg>
