<?xml version="1.0" standalone="no"  ?>
<!DOCTYPE svg PUBLIC "-//W3C//DTD SVG 1.1//EN"
 "http://www.w3.org/Graphics/SVG/1.1/DTD/svg11.dtd">
<svg width="720" height="540" background-color="#FFFFFF" Encoding="UTF-8" xmlns="http://www.w3.org/2000/svg" xmlns:xlink = "http://www.w3.org/1999/xlink">
"type":"AnimEffectWipe","speed":"500"
                        <g id="groupstart">
            <ellipse cx="451" cy="164.5" rx="4" ry="3.5" fill="#FF0033" />
            <line x1="563"  y1="206" x2="563" y2="225" style="stroke:#CC0000;stroke-width:2;" />
            <rect x="315" y="163" width="74" height="31" fill=" none " />
            <g transform="translate(319, 183)" text-anchor="start">
                <text x="0" y="0"  font-family="Times New Roman" font-size="20">コイル&#160;</text>
            </g>
            <line x1="360"  y1="246" x2="397" y2="246" style="stroke:#FFCCCC;stroke-width:2;" />
            <ellipse cx="355" cy="247" rx="9" ry="9" fill="#FF0000" />
            <ellipse cx="355" cy="247" rx="5" ry="5" fill="#FF0000" />
            <line x1="362"  y1="246" x2="390" y2="246" style="stroke:#CC0000;stroke-width:2;" />
            <line x1="457"  y1="143" x2="457" y2="207" style="stroke:#E201F3;stroke-width:4;" />
            <line x1="558"  y1="143" x2="558" y2="207" style="stroke:#E201F3;stroke-width:4;" />
            <ellipse cx="451" cy="174.5" rx="4" ry="3.5" fill="#FF0033" />
            <ellipse cx="451" cy="183.5" rx="4" ry="3.5" fill="#FF0033" />
            <ellipse cx="451" cy="193.5" rx="4" ry="3.5" fill="#FF0033" />
            <ellipse cx="451" cy="202.5" rx="4" ry="3.5" fill="#FF0033" />
            <ellipse cx="564" cy="193.5" rx="4" ry="3.5" fill="#FF0033" />
            <ellipse cx="564" cy="202.5" rx="4" ry="3.5" fill="#FF0033" />
            <line x1="452"  y1="206" x2="452" y2="225" style="stroke:#CC0000;stroke-width:2;" />
            <line x1="394"  y1="225" x2="562" y2="290" style="stroke:#CC0000;stroke-width:2;" />
            <line x1="359"  y1="290" x2="396" y2="290" style="stroke:#CC0000;stroke-width:2;" />
            <ellipse cx="354" cy="290" rx="9" ry="9" fill="#FF0000" />
            <ellipse cx="354" cy="290" rx="5" ry="5" fill="#FF0000" />
            <line x1="395"  y1="225" x2="451" y2="246" style="stroke:#CC0000;stroke-width:2;" />
            <rect x="315" y="253" width="54" height="31" fill=" none " />
            <g transform="translate(319, 273)" text-anchor="start">
                <text x="0" y="0"  font-family="Times New Roman" font-size="20">入力</text>
            </g>
            <rect x="315" y="208" width="68" height="31" fill=" none " />
            <g transform="translate(319, 228)" text-anchor="start">
                <text x="0" y="0"  font-family="Times New Roman" font-size="20">電流&#160;
                 <tspan   font-family="Times New Roman" font-size="20">Ｉ</tspan></text>
            </g>
            <rect x="369" y="214" width="24" height="26" fill=" none " />
            <g transform="translate(373, 234)" text-anchor="start">
                <text x="0" y="0"  font-family="Times New Roman" font-size="16">ｄ</text>
            </g>
            <line x1="381"  y1="177" x2="445" y2="192" style="stroke:#000000;stroke-width:1;" />
</g>
</svg>
