<?xml version="1.0" standalone="no"  ?>
<!DOCTYPE svg PUBLIC "-//W3C//DTD SVG 1.1//EN"
 "http://www.w3.org/Graphics/SVG/1.1/DTD/svg11.dtd">
<svg width="720" height="540" background-color="#FFFFFF" Encoding="UTF-8" xmlns="http://www.w3.org/2000/svg" xmlns:xlink = "http://www.w3.org/1999/xlink">
                        <g id="groupstart">
            <rect x="378" y="420" width="98" height="36" fill=" none " />
            <g transform="translate(382, 440)" text-anchor="start">
                <text x="0" y="0"  font-family="Times New Roman" font-size="20">誘電率
                 <tspan   font-family="Times New Roman" font-size="24">ε</tspan></text>
            </g>
            <rect x="459" y="430" width="24" height="31" fill=" none " />
            <g transform="translate(463, 450)" text-anchor="start">
                <text x="0" y="0"  font-family="Times New Roman" font-size="20">o</text>
            </g>
            <line x1="427"  y1="376" x2="457" y2="424" style="stroke:#000000;stroke-width:1;" />
            <rect x="448" y="398" width="74" height="31" fill=" none " />
            <g transform="translate(452, 418)" text-anchor="start">
                <text x="0" y="0"  font-family="Times New Roman" font-size="20">固定板</text>
            </g>
            <rect x="441" y="382" width="126" height="9" fill="#FFFFFF" />
            <rect x="441" y="382" width="7" height="26" fill="#FFFFFF" />
            <rect x="560" y="382" width="7" height="26" fill="#FFFFFF" />
            <rect x="441" y="345" width="126" height="10" fill="#666633" />
            <line x1="442"  y1="383" x2="567" y2="383" style="stroke:#006638;stroke-width:4;" />
            <line x1="568"  y1="382" x2="568" y2="408" style="stroke:#006638;stroke-width:4;" />
            <line x1="442"  y1="382" x2="442" y2="408" style="stroke:#006638;stroke-width:4;" />
            <rect x="432" y="283" width="74" height="31" fill=" none " />
            <g transform="translate(436, 303)" text-anchor="start">
                <text x="0" y="0"  font-family="Times New Roman" font-size="20">振動板</text>
            </g>
            <rect x="395" y="340" width="21" height="8" fill="#9C0068" />
            <rect x="395" y="351" width="21" height="8" fill="#9C0068" />
            <rect x="592" y="340" width="21" height="8" fill="#9C0068" />
            <rect x="592" y="351" width="21" height="8" fill="#9C0068" />
            <line x1="333"  y1="350" x2="377" y2="350" style="stroke:#000000;stroke-width:2;" />
            <line x1="333"  y1="382" x2="439" y2="382" style="stroke:#000000;stroke-width:2;" />
            <line x1="340"  y1="326" x2="340" y2="349" style="stroke:#000000;stroke-width:2;" />
            <line x1="340"  y1="382" x2="340" y2="405" style="stroke:#000000;stroke-width:1;" />
            <rect x="318" y="348" width="38" height="31" fill=" none " />
            <g transform="translate(322, 368)" text-anchor="start">
                <text x="0" y="0"  font-family="Times New Roman" font-size="20">ｄ
                 <tspan   font-family="Times New Roman" font-size="18">ｏ</tspan></text>
            </g>
</g>
</svg>
