<?xml version="1.0" standalone="no"  ?>
<!DOCTYPE svg PUBLIC "-//W3C//DTD SVG 1.1//EN"
 "http://www.w3.org/Graphics/SVG/1.1/DTD/svg11.dtd">
<svg width="720" height="540" background-color="#FFFFFF" Encoding="UTF-8" xmlns="http://www.w3.org/2000/svg" xmlns:xlink = "http://www.w3.org/1999/xlink">
"type":"AnimEffectStretch","speed":"500"
                        <g id="groupstart">
            <rect x="55" y="502" width="94" height="31" fill=" none " />
            <g transform="translate(59, 522)" text-anchor="start">
                <text x="0" y="0"  font-family="Times New Roman" font-size="20">永久磁石</text>
            </g>
            <line x1="132"  y1="433" x2="168" y2="499" style="stroke:#000000;stroke-width:1;" />
            <rect x="165" y="502" width="54" height="31" fill=" none " />
            <g transform="translate(169, 522)" text-anchor="start">
                <text x="0" y="0"  font-family="Times New Roman" font-size="20">磁束</text>
            </g>
            <rect x="156" y="405" width="70" height="38" fill="#008000" />
            <line x1="196"  y1="443" x2="206" y2="443" style="stroke:#017D0A;stroke-width:2;" />
            <line x1="179"  y1="443" x2="190" y2="443" style="stroke:#017D0A;stroke-width:2;" />
            <line x1="156"  y1="443" x2="170" y2="443" style="stroke:#017D0A;stroke-width:2;" />
            <line x1="200"  y1="405" x2="210" y2="405" style="stroke:#017D0A;stroke-width:2;" />
            <line x1="182"  y1="405" x2="194" y2="405" style="stroke:#017D0A;stroke-width:2;" />
            <line x1="156"  y1="405" x2="174" y2="405" style="stroke:#017D0A;stroke-width:2;" />
            <line x1="222"  y1="381" x2="234" y2="381" style="stroke:#FFCCCC;stroke-width:2.25;" />
            <line x1="201"  y1="381" x2="213" y2="381" style="stroke:#FFCCCC;stroke-width:2.25;" />
            <line x1="180"  y1="381" x2="192" y2="381" style="stroke:#FFCCCC;stroke-width:2.25;" />
            <line x1="159"  y1="381" x2="171" y2="381" style="stroke:#FFCCCC;stroke-width:2.25;" />
            <line x1="138"  y1="374" x2="150" y2="374" style="stroke:#FFCCCC;stroke-width:2.25;" />
            <line x1="159"  y1="374" x2="171" y2="374" style="stroke:#FFCCCC;stroke-width:2.25;" />
            <line x1="180"  y1="374" x2="192" y2="374" style="stroke:#FFCCCC;stroke-width:2.25;" />
            <line x1="201"  y1="374" x2="213" y2="374" style="stroke:#FFCCCC;stroke-width:2.25;" />
            <line x1="222"  y1="374" x2="234" y2="374" style="stroke:#FFCCCC;stroke-width:2.25;" />
            <line x1="224"  y1="419" x2="236" y2="419" style="stroke:#FFCCCC;stroke-width:2.25;" />
            <line x1="203"  y1="419" x2="215" y2="419" style="stroke:#FFCCCC;stroke-width:2.25;" />
            <line x1="182"  y1="419" x2="194" y2="419" style="stroke:#FFCCCC;stroke-width:2.25;" />
            <line x1="161"  y1="419" x2="173" y2="419" style="stroke:#FFCCCC;stroke-width:2.25;" />
            <line x1="131"  y1="376" x2="131" y2="386" style="stroke:#FFCCCC;stroke-width:2.25;" />
            <line x1="208"  y1="412" x2="220" y2="412" style="stroke:#FFCCCC;stroke-width:2.25;" />
            <line x1="187"  y1="412" x2="199" y2="412" style="stroke:#FFCCCC;stroke-width:2.25;" />
            <line x1="166"  y1="412" x2="178" y2="412" style="stroke:#FFCCCC;stroke-width:2.25;" />
            <line x1="145"  y1="412" x2="157" y2="412" style="stroke:#FFCCCC;stroke-width:2.25;" />
            <line x1="145"  y1="395" x2="145" y2="405" style="stroke:#FFCCCC;stroke-width:2.25;" />
            <line x1="131"  y1="395" x2="131" y2="405" style="stroke:#FFCCCC;stroke-width:2.25;" />
            <line x1="142"  y1="419" x2="154" y2="419" style="stroke:#FFCCCC;stroke-width:2.25;" />
            <line x1="229"  y1="411" x2="236" y2="411" style="stroke:#FFCCCC;stroke-width:2.25;" />
            <line x1="222"  y1="467" x2="234" y2="467" style="stroke:#FFCCCC;stroke-width:2.25;" />
            <line x1="201"  y1="467" x2="213" y2="467" style="stroke:#FFCCCC;stroke-width:2.25;" />
            <line x1="180"  y1="467" x2="192" y2="467" style="stroke:#FFCCCC;stroke-width:2.25;" />
            <line x1="159"  y1="467" x2="171" y2="467" style="stroke:#FFCCCC;stroke-width:2.25;" />
            <line x1="138"  y1="474" x2="150" y2="474" style="stroke:#FFCCCC;stroke-width:2.25;" />
            <line x1="159"  y1="473" x2="171" y2="473" style="stroke:#FFCCCC;stroke-width:2.25;" />
            <line x1="180"  y1="473" x2="192" y2="473" style="stroke:#FFCCCC;stroke-width:2.25;" />
            <line x1="201"  y1="473" x2="213" y2="473" style="stroke:#FFCCCC;stroke-width:2.25;" />
            <line x1="222"  y1="473" x2="234" y2="473" style="stroke:#FFCCCC;stroke-width:2.25;" />
            <line x1="208"  y1="436" x2="220" y2="436" style="stroke:#FFCCCC;stroke-width:2.25;" />
            <line x1="187"  y1="436" x2="199" y2="436" style="stroke:#FFCCCC;stroke-width:2.25;" />
            <line x1="166"  y1="436" x2="178" y2="436" style="stroke:#FFCCCC;stroke-width:2.25;" />
            <line x1="145"  y1="436" x2="157" y2="436" style="stroke:#FFCCCC;stroke-width:2.25;" />
            <line x1="224"  y1="428" x2="236" y2="428" style="stroke:#FFCCCC;stroke-width:2.25;" />
            <line x1="203"  y1="428" x2="215" y2="428" style="stroke:#FFCCCC;stroke-width:2.25;" />
            <line x1="182"  y1="428" x2="194" y2="428" style="stroke:#FFCCCC;stroke-width:2.25;" />
            <line x1="161"  y1="428" x2="173" y2="428" style="stroke:#FFCCCC;stroke-width:2.25;" />
            <line x1="145"  y1="443" x2="145" y2="453" style="stroke:#FFCCCC;stroke-width:2.25;" />
            <line x1="131"  y1="461" x2="131" y2="471" style="stroke:#FFCCCC;stroke-width:2.25;" />
            <line x1="131"  y1="443" x2="131" y2="453" style="stroke:#FFCCCC;stroke-width:2.25;" />
            <line x1="142"  y1="428" x2="154" y2="428" style="stroke:#FFCCCC;stroke-width:2.25;" />
            <line x1="229"  y1="436" x2="236" y2="436" style="stroke:#FFCCCC;stroke-width:2.25;" />
            <line x1="216"  y1="480" x2="228" y2="517" style="stroke:#000000;stroke-width:1;" />
</g>
</svg>
