<?xml version="1.0" standalone="no"  ?>
<!DOCTYPE svg PUBLIC "-//W3C//DTD SVG 1.1//EN"
 "http://www.w3.org/Graphics/SVG/1.1/DTD/svg11.dtd">
<svg width="720" height="540" background-color="#FFFFFF" Encoding="UTF-8" xmlns="http://www.w3.org/2000/svg" xmlns:xlink = "http://www.w3.org/1999/xlink">
"type":"AnimEffectWipe","speed":"500"
                        <g id="groupstart">
            <rect x="30" y="191" width="167" height="56" fill="#D5D4FC" />
            <rect x="29" y="198" width="63" height="36" fill=" none " />
            <g transform="translate(33, 218)" text-anchor="start">
                <text x="0" y="0"  font-family="Times New Roman" font-size="24">Ａ
                 <tspan   font-family="Times New Roman" font-size="24">&#160;＝</tspan></text>
            </g>
            <rect x="100" y="216" width="29" height="36" fill=" none " />
            <g transform="translate(104, 236)" text-anchor="start">
                <text x="0" y="0"  font-family="Times New Roman" font-size="24">ｄ</text>
            </g>
            <line x1="90"  y1="216" x2="174" y2="217" style="stroke:#000000;stroke-width:2;" />
            <rect x="118" y="222" width="26" height="29" fill=" none " />
            <g transform="translate(122, 242)" text-anchor="start">
                <text x="0" y="0"  font-family="Times New Roman" font-size="18">ｏ</text>
            </g>
            <rect x="86" y="184" width="95" height="36" fill=" none " />
            <g transform="translate(90, 204)" text-anchor="start">
                <text x="0" y="0"  font-family="Times New Roman" font-size="24">n
                 <tspan   font-family="Times New Roman" font-size="24">μ&#160;</tspan>
                 <tspan   font-family="Times New Roman" font-size="24">ＳＵ</tspan></text>
            </g>
            <rect x="116" y="192" width="26" height="29" fill=" none " />
            <g transform="translate(120, 212)" text-anchor="start">
                <text x="0" y="0"  font-family="Times New Roman" font-size="18">ｏ</text>
            </g>
            <rect x="168" y="192" width="26" height="29" fill=" none " />
            <g transform="translate(172, 212)" text-anchor="start">
                <text x="0" y="0"  font-family="Times New Roman" font-size="18">ｏ</text>
            </g>
            <rect x="132" y="212" width="24" height="31" fill=" none " />
            <g transform="translate(136, 232)" text-anchor="start">
                <text x="0" y="0"  font-family="Times New Roman" font-size="20">2</text>
            </g>
            <rect x="23" y="156" width="231" height="36" fill=" none " />
            <g transform="translate(27, 176)" text-anchor="start">
                <text x="0" y="0"  font-family="Times New Roman" font-size="24">電磁変換器の力係数</text>
            </g>
</g>
</svg>
