<?xml version="1.0" standalone="no"  ?>
<!DOCTYPE svg PUBLIC "-//W3C//DTD SVG 1.1//EN"
 "http://www.w3.org/Graphics/SVG/1.1/DTD/svg11.dtd">
<svg width="720" height="540" background-color="#FFFFFF" Encoding="UTF-8" xmlns="http://www.w3.org/2000/svg" xmlns:xlink = "http://www.w3.org/1999/xlink">
"type":"AnimEffectZoom","speed":"500"
                        <g id="groupstart">
            <line x1="404"  y1="177" x2="430" y2="226" style="stroke:#000000;stroke-width:1;" />
            <rect x="378" y="224" width="69" height="31" fill=" none " />
            <g transform="translate(382, 244)" text-anchor="start">
                <text x="0" y="0"  font-family="Times New Roman" font-size="20">コイル</text>
            </g>
            <ellipse cx="429.5" cy="120" rx="4.5" ry="5" fill="#F800AB" />
            <ellipse cx="429.5" cy="120" rx="2.5" ry="3" fill="#FE1CAD" />
            <ellipse cx="436.5" cy="120" rx="4.5" ry="5" fill="#F800AB" />
            <ellipse cx="436.5" cy="120" rx="2.5" ry="3" fill="#FE1CAD" />
            <ellipse cx="443.5" cy="120" rx="4.5" ry="5" fill="#F800AB" />
            <ellipse cx="443.5" cy="120" rx="2.5" ry="3" fill="#FE1CAD" />
            <ellipse cx="450.5" cy="120" rx="4.5" ry="5" fill="#F800AB" />
            <ellipse cx="450.5" cy="120" rx="2.5" ry="3" fill="#FE1CAD" />
            <ellipse cx="429.5" cy="177" rx="4.5" ry="5" fill="#F800AB" />
            <ellipse cx="429.5" cy="177" rx="2.5" ry="3" fill="#FE1CAD" />
            <ellipse cx="436.5" cy="177" rx="4.5" ry="5" fill="#F800AB" />
            <ellipse cx="436.5" cy="177" rx="2.5" ry="3" fill="#FE1CAD" />
            <ellipse cx="443.5" cy="177" rx="4.5" ry="5" fill="#F800AB" />
            <ellipse cx="443.5" cy="177" rx="2.5" ry="3" fill="#FE1CAD" />
            <ellipse cx="450.5" cy="177" rx="4.5" ry="5" fill="#F800AB" />
            <ellipse cx="450.5" cy="177" rx="2.5" ry="3" fill="#FE1CAD" />
</g>
</svg>
