<?xml version="1.0" standalone="no"  ?>
<!DOCTYPE svg PUBLIC "-//W3C//DTD SVG 1.1//EN"
 "http://www.w3.org/Graphics/SVG/1.1/DTD/svg11.dtd">
<svg width="720" height="540" background-color="#FFFFFF" Encoding="UTF-8" xmlns="http://www.w3.org/2000/svg" xmlns:xlink = "http://www.w3.org/1999/xlink">
                        <g id="groupstart">
            <rect x="346" y="419" width="149" height="87" fill="#F6D3FD" />
            <line x1="402"  y1="438" x2="428" y2="438" style="stroke:#000000;stroke-width:2;" />
            <ellipse cx="428" cy="438" rx="8" ry="8" fill="#000000" />
            <ellipse cx="428" cy="438" rx="4" ry="4" fill="#004D00" />
            <rect x="356" y="423" width="47" height="40" fill="#000000" />
            <rect x="358" y="425" width="43" height="36" fill=" none " />
            <ellipse cx="427" cy="470.5" rx="19" ry="17.5" fill="#000000" />
            <ellipse cx="427" cy="470.5" rx="15" ry="13.5" fill="" />
            <line x1="427"  y1="443" x2="427" y2="456" style="stroke:#000000;stroke-width:2;" />
            <line x1="427"  y1="485" x2="427" y2="499" style="stroke:#000000;stroke-width:2;" />
            <ellipse cx="427" cy="499" rx="8" ry="8" fill="#000000" />
            <ellipse cx="427" cy="499" rx="4" ry="4" fill="#004D00" />
            <rect x="407" y="454" width="38" height="36" fill=" none " />
            <g transform="translate(411, 474)" text-anchor="start">
                <text x="0" y="0"  font-family="Times New Roman" font-size="24">～</text>
            </g>
            <rect x="362" y="419" width="27" height="46" fill=" none " />
            <g transform="translate(366, 439)" text-anchor="start">
                <text x="0" y="0"  font-family="Times New Roman" font-size="32">z</text>
            </g>
            <rect x="375" y="428" width="26" height="36" fill=" none " />
            <g transform="translate(379, 448)" text-anchor="start">
                <text x="0" y="0"  font-family="Times New Roman" font-size="24">o</text>
            </g>
            <rect x="449" y="454" width="45" height="36" fill=" none " />
            <g transform="translate(453, 474)" text-anchor="start">
                <text x="0" y="0"  font-family="Times New Roman" font-size="24">Ｆ
                 <tspan   font-family="Times New Roman" font-size="20">ｏ</tspan></text>
            </g>
            <line x1="451"  y1="451" x2="451" y2="484" style="stroke:#C60026;stroke-width:3;" />
            <rect x="389" y="505" width="74" height="31" fill=" none " />
            <g transform="translate(393, 525)" text-anchor="start">
                <text x="0" y="0"  font-family="Times New Roman" font-size="20">機械系</text>
            </g>
            <line x1="336"  y1="499" x2="424" y2="499" style="stroke:#000000;stroke-width:2;" />
            <line x1="339"  y1="438" x2="357" y2="438" style="stroke:#000000;stroke-width:2;" />
</g>
</svg>
