<?xml version="1.0" standalone="no"  ?>
<!DOCTYPE svg PUBLIC "-//W3C//DTD SVG 1.1//EN"
 "http://www.w3.org/Graphics/SVG/1.1/DTD/svg11.dtd">
<svg width="720" height="540" background-color="#FFFFFF" Encoding="UTF-8" xmlns="http://www.w3.org/2000/svg" xmlns:xlink = "http://www.w3.org/1999/xlink">
                        <g id="groupstart">
            <rect x="196" y="136" width="230" height="57" fill="#D6D8FE" />
            <g  transform="rotate(270,182,165)">
            <path d="M 182 148 L 152 182 L 212 182 Z" stroke-width="" stroke="" 
fill="#D6D8FE" />
            </g>
            <rect x="198" y="138" width="6" height="54" fill="#D6D8FE" />
            <rect x="30" y="136" width="125" height="56" fill="#FDCEFE" />
            <rect x="58" y="170" width="25" height="26" fill=" none " />
            <g transform="translate(62, 190)" text-anchor="start">
                <text x="0" y="0"  font-family="Times New Roman" font-size="16">Ｓ</text>
            </g>
            <rect x="35" y="159" width="35" height="36" fill=" none " />
            <g transform="translate(39, 179)" text-anchor="start">
                <text x="0" y="0"  font-family="Times New Roman" font-size="24">Ｋ</text>
            </g>
            <line x1="42"  y1="164" x2="84" y2="164" style="stroke:#000000;stroke-width:2;" />
            <rect x="59" y="142" width="32" height="29" fill=" none " />
            <g transform="translate(63, 162)" text-anchor="start">
                <text x="0" y="0"  font-family="Times New Roman" font-size="18">M</text>
            </g>
            <rect x="83" y="145" width="71" height="36" fill=" none " />
            <g transform="translate(87, 165)" text-anchor="start">
                <text x="0" y="0"  font-family="Times New Roman" font-size="24">＝
                 <tspan   font-family="Times New Roman" font-size="24">Ｊ&#160;Ｚ</tspan></text>
            </g>
            <rect x="36" y="131" width="35" height="36" fill=" none " />
            <g transform="translate(40, 151)" text-anchor="start">
                <text x="0" y="0"  font-family="Times New Roman" font-size="24">Ｋ</text>
            </g>
            <rect x="296" y="148" width="63" height="36" fill=" none " />
            <g transform="translate(300, 168)" text-anchor="start">
                <text x="0" y="0"  font-family="Times New Roman" font-size="24">Ｊ&#160;
                 <tspan   font-family="Times New Roman" font-size="24">＝</tspan>
                 <tspan   font-family="Times New Roman" font-size="24">ｊ</tspan></text>
            </g>
            <rect x="346" y="148" width="38" height="36" fill=" none " />
            <g transform="translate(350, 168)" text-anchor="start">
                <text x="0" y="0"  font-family="Times New Roman" font-size="24">ω</text>
            </g>
            <line x1="382"  y1="167" x2="412" y2="167" style="stroke:#000000;stroke-width:2;" />
            <rect x="378" y="134" width="35" height="36" fill=" none " />
            <g transform="translate(382, 154)" text-anchor="start">
                <text x="0" y="0"  font-family="Times New Roman" font-size="24">Ｑ</text>
            </g>
            <rect x="374" y="156" width="42" height="41" fill=" none " />
            <g transform="translate(378, 176)" text-anchor="start">
                <text x="0" y="0"  font-family="Times New Roman" font-size="28">κ</text>
            </g>
            <rect x="186" y="146" width="110" height="36" fill=" none " />
            <g transform="translate(190, 166)" text-anchor="start">
                <text x="0" y="0"  font-family="Times New Roman" font-size="24">相反定数</text>
            </g>
            <rect x="436" y="154" width="28" height="31" fill=" none " />
            <g transform="translate(440, 174)" text-anchor="start">
                <text x="0" y="0"  font-family="Times New Roman" font-size="20">Ｚ</text>
            </g>
            <rect x="461" y="155" width="245" height="31" fill=" none " />
            <g transform="translate(465, 175)" text-anchor="start">
                <text x="0" y="0"  font-family="Times New Roman" font-size="20">電気回路のインピーダンス</text>
            </g>
</g>
</svg>
