<?xml version="1.0" standalone="no"  ?>
<!DOCTYPE svg PUBLIC "-//W3C//DTD SVG 1.1//EN"
 "http://www.w3.org/Graphics/SVG/1.1/DTD/svg11.dtd">
<svg width="720" height="540" background-color="#FFFFFF" Encoding="UTF-8" xmlns="http://www.w3.org/2000/svg" xmlns:xlink = "http://www.w3.org/1999/xlink">
"type":"AnimEffectWipe","speed":"500"
                        <g id="groupstart">
            <rect x="54" y="444" width="102" height="36" fill=" none " />
            <g transform="translate(58, 464)" text-anchor="start">
                <text x="0" y="0"  font-family="Times New Roman" font-size="24">ｚ
                 <tspan   font-family="Times New Roman" font-size="24">&#160;＝</tspan>
                 <tspan   font-family="Times New Roman" font-size="24">ｚ&#160;&#160;－</tspan></text>
            </g>
            <rect x="111" y="455" width="30" height="29" fill=" none " />
            <g transform="translate(115, 475)" text-anchor="start">
                <text x="0" y="0"  font-family="Times New Roman" font-size="18">m</text>
            </g>
            <rect x="174" y="429" width="79" height="36" fill=" none " />
            <g transform="translate(178, 449)" text-anchor="start">
                <text x="0" y="0"  font-family="Times New Roman" font-size="24">ε&#160;
                 <tspan   font-family="Times New Roman" font-size="24">ＳＥ</tspan></text>
            </g>
            <rect x="191" y="461" width="29" height="36" fill=" none " />
            <g transform="translate(195, 481)" text-anchor="start">
                <text x="0" y="0"  font-family="Times New Roman" font-size="24">ｄ</text>
            </g>
            <line x1="187"  y1="463" x2="259" y2="463" style="stroke:#000000;stroke-width:2;" />
            <rect x="192" y="437" width="26" height="29" fill=" none " />
            <g transform="translate(196, 457)" text-anchor="start">
                <text x="0" y="0"  font-family="Times New Roman" font-size="18">ｏ</text>
            </g>
            <rect x="209" y="467" width="26" height="29" fill=" none " />
            <g transform="translate(213, 487)" text-anchor="start">
                <text x="0" y="0"  font-family="Times New Roman" font-size="18">ｏ</text>
            </g>
            <rect x="240" y="437" width="26" height="29" fill=" none " />
            <g transform="translate(244, 457)" text-anchor="start">
                <text x="0" y="0"  font-family="Times New Roman" font-size="18">ｏ</text>
            </g>
            <rect x="250" y="426" width="24" height="31" fill=" none " />
            <g transform="translate(254, 446)" text-anchor="start">
                <text x="0" y="0"  font-family="Times New Roman" font-size="20">2</text>
            </g>
            <rect x="224" y="459" width="24" height="31" fill=" none " />
            <g transform="translate(228, 479)" text-anchor="start">
                <text x="0" y="0"  font-family="Times New Roman" font-size="20">3</text>
            </g>
            <rect x="149" y="458" width="45" height="36" fill=" none " />
            <g transform="translate(153, 478)" text-anchor="start">
                <text x="0" y="0"  font-family="Times New Roman" font-size="24">j
                 <tspan   font-family="Times New Roman" font-size="24">ω</tspan></text>
            </g>
            <line x1="157"  y1="463" x2="181" y2="463" style="stroke:#000000;stroke-width:2;" />
            <rect x="158" y="430" width="26" height="36" fill=" none " />
            <g transform="translate(162, 450)" text-anchor="start">
                <text x="0" y="0"  font-family="Times New Roman" font-size="24">1</text>
            </g>
</g>
</svg>
