<?xml version="1.0" standalone="no"  ?>
<!DOCTYPE svg PUBLIC "-//W3C//DTD SVG 1.1//EN"
 "http://www.w3.org/Graphics/SVG/1.1/DTD/svg11.dtd">
<svg width="720" height="540" background-color="#FFFFFF" Encoding="UTF-8" xmlns="http://www.w3.org/2000/svg" xmlns:xlink = "http://www.w3.org/1999/xlink">
                        <g id="groupstart">
            <rect x="392" y="94" width="191" height="56" fill="#FDD1FF" />
            <rect x="417" y="125" width="33" height="26" fill=" none " />
            <g transform="translate(421, 145)" text-anchor="start">
                <text x="0" y="0"  font-family="Times New Roman" font-size="16">Ｉ&#160;１</text>
            </g>
            <rect x="492" y="116" width="39" height="26" fill=" none " />
            <g transform="translate(496, 136)" text-anchor="start">
                <text x="0" y="0"  font-family="Times New Roman" font-size="16">ＳＡ</text>
            </g>
            <rect x="468" y="102" width="35" height="36" fill=" none " />
            <g transform="translate(472, 122)" text-anchor="start">
                <text x="0" y="0"  font-family="Times New Roman" font-size="24">Ｋ</text>
            </g>
            <line x1="404"  y1="122" x2="446" y2="122" style="stroke:#000000;stroke-width:2;" />
            <rect x="396" y="115" width="33" height="36" fill=" none " />
            <g transform="translate(400, 135)" text-anchor="start">
                <text x="0" y="0"  font-family="Times New Roman" font-size="24">Ｅ</text>
            </g>
            <rect x="396" y="89" width="33" height="36" fill=" none " />
            <g transform="translate(400, 109)" text-anchor="start">
                <text x="0" y="0"  font-family="Times New Roman" font-size="24">Ｅ</text>
            </g>
            <rect x="417" y="99" width="36" height="26" fill=" none " />
            <g transform="translate(421, 119)" text-anchor="start">
                <text x="0" y="0"  font-family="Times New Roman" font-size="16">Ｏ１</text>
            </g>
            <rect x="540" y="114" width="44" height="29" fill=" none " />
            <g transform="translate(544, 134)" text-anchor="start">
                <text x="0" y="0"  font-family="Times New Roman" font-size="18">MB</text>
            </g>
            <rect x="444" y="102" width="37" height="36" fill=" none " />
            <g transform="translate(448, 122)" text-anchor="start">
                <text x="0" y="0"  font-family="Times New Roman" font-size="24">＝</text>
            </g>
            <rect x="518" y="102" width="35" height="36" fill=" none " />
            <g transform="translate(522, 122)" text-anchor="start">
                <text x="0" y="0"  font-family="Times New Roman" font-size="24">Ｋ</text>
            </g>
</g>
</svg>
