<?xml version="1.0" standalone="no"  ?>
<!DOCTYPE svg PUBLIC "-//W3C//DTD SVG 1.1//EN"
 "http://www.w3.org/Graphics/SVG/1.1/DTD/svg11.dtd">
<svg width="720" height="540" background-color="#FFFFFF" Encoding="UTF-8" xmlns="http://www.w3.org/2000/svg" xmlns:xlink = "http://www.w3.org/1999/xlink">
"type":"AnimEffectZoom","speed":"500"
                        <g id="groupstart">
            <rect x="378" y="18" width="330" height="201" fill="#FFFFFF" />
            <rect x="412" y="222" width="140" height="36" fill=" none " />
            <g transform="translate(416, 242)" text-anchor="start">
                <text x="0" y="0"  font-family="Times New Roman" font-size="20">共振周期数&#160;
                 <tspan   font-family="Times New Roman" font-size="24">f</tspan>
                 <tspan   font-family="Times New Roman" font-size="24">o</tspan></text>
            </g>
            <line x1="378"  y1="219" x2="708" y2="219" style="stroke:#333333;stroke-width:2;" />
            <line x1="378"  y1="19" x2="378" y2="219" style="stroke:#333333;stroke-width:2;" />
            <g  transform="rotate(270,356.5,90.5)">
            <rect x="303" y="75" width="107" height="31" fill=" none " />
            <g transform="translate(307, 95)" text-anchor="start">
                <text x="0" y="0"  font-family="Times New Roman" font-size="20">レスポンス</text>
            </g>
            </g>
            <rect x="623" y="226" width="74" height="31" fill=" none " />
            <g transform="translate(627, 246)" text-anchor="start">
                <text x="0" y="0"  font-family="Times New Roman" font-size="20">周波数</text>
            </g>
            <rect x="538" y="110" width="129" height="31" fill=" none " />
            <g transform="translate(542, 130)" text-anchor="start">
                <text x="0" y="0"  font-family="Times New Roman" font-size="20">密閉バッフル</text>
            </g>
            <rect x="527" y="169" width="169" height="31" fill=" none " />
            <g transform="translate(531, 189)" text-anchor="start">
                <text x="0" y="0"  font-family="Times New Roman" font-size="20">無限平板バッフル</text>
            </g>
            <line x1="435"  y1="144" x2="525" y2="178" style="stroke:#333333;stroke-width:1;" />
            <line x1="408"  y1="193" x2="414" y2="207" style="stroke:#008000;stroke-width:4;" />
            <line x1="418"  y1="169" x2="424" y2="183" style="stroke:#008000;stroke-width:4;" />
            <line x1="429"  y1="145" x2="435" y2="159" style="stroke:#008000;stroke-width:4;" />
            <line x1="438"  y1="121" x2="444" y2="135" style="stroke:#008000;stroke-width:4;" />
            <line x1="490"  y1="64" x2="515" y2="64" style="stroke:#008000;stroke-width:4;" />
            <line x1="448"  y1="97" x2="454" y2="111" style="stroke:#008000;stroke-width:4;" />
            <line x1="470"  y1="90" x2="470" y2="228" style="stroke:#333333;stroke-width:2;" />
</g>
</svg>
