<?xml version="1.0" standalone="no"  ?>
<!DOCTYPE svg PUBLIC "-//W3C//DTD SVG 1.1//EN"
 "http://www.w3.org/Graphics/SVG/1.1/DTD/svg11.dtd">
<svg width="720" height="540" background-color="#FFFFFF" Encoding="UTF-8" xmlns="http://www.w3.org/2000/svg" xmlns:xlink = "http://www.w3.org/1999/xlink">
                        <g id="groupstart">
            <rect x="411" y="321" width="250" height="164" fill="#FFFFFF" />
            <line x1="411"  y1="456" x2="420" y2="456" style="stroke:#000000;stroke-width:3;" />
            <line x1="411"  y1="429" x2="420" y2="429" style="stroke:#000000;stroke-width:3;" />
            <line x1="411"  y1="402" x2="420" y2="402" style="stroke:#000000;stroke-width:3;" />
            <line x1="411"  y1="375" x2="420" y2="375" style="stroke:#000000;stroke-width:3;" />
            <line x1="411"  y1="348" x2="420" y2="348" style="stroke:#000000;stroke-width:3;" />
            <line x1="411"  y1="321" x2="420" y2="321" style="stroke:#000000;stroke-width:3;" />
            <line x1="412"  y1="309" x2="412" y2="485" style="stroke:#000000;stroke-width:3;" />
            <line x1="412"  y1="485" x2="660" y2="485" style="stroke:#000000;stroke-width:3;" />
            <line x1="442"  y1="476" x2="442" y2="485" style="stroke:#000000;stroke-width:3;" />
            <line x1="459"  y1="476" x2="459" y2="485" style="stroke:#000000;stroke-width:3;" />
            <line x1="471"  y1="476" x2="471" y2="485" style="stroke:#000000;stroke-width:3;" />
            <line x1="480"  y1="476" x2="480" y2="485" style="stroke:#000000;stroke-width:3;" />
            <line x1="488"  y1="476" x2="488" y2="485" style="stroke:#000000;stroke-width:3;" />
            <line x1="496"  y1="476" x2="496" y2="485" style="stroke:#000000;stroke-width:3;" />
            <line x1="502"  y1="476" x2="502" y2="485" style="stroke:#000000;stroke-width:3;" />
            <line x1="507"  y1="476" x2="507" y2="485" style="stroke:#000000;stroke-width:3;" />
            <line x1="511"  y1="476" x2="511" y2="485" style="stroke:#000000;stroke-width:3;" />
            <line x1="540"  y1="476" x2="540" y2="485" style="stroke:#000000;stroke-width:3;" />
            <line x1="558"  y1="476" x2="558" y2="485" style="stroke:#000000;stroke-width:3;" />
            <line x1="570"  y1="476" x2="570" y2="485" style="stroke:#000000;stroke-width:3;" />
            <line x1="578"  y1="476" x2="578" y2="485" style="stroke:#000000;stroke-width:3;" />
            <line x1="586"  y1="476" x2="586" y2="485" style="stroke:#000000;stroke-width:3;" />
            <line x1="594"  y1="476" x2="594" y2="485" style="stroke:#000000;stroke-width:3;" />
            <line x1="600"  y1="476" x2="600" y2="485" style="stroke:#000000;stroke-width:3;" />
            <line x1="605"  y1="476" x2="605" y2="485" style="stroke:#000000;stroke-width:3;" />
            <line x1="609"  y1="476" x2="609" y2="485" style="stroke:#000000;stroke-width:3;" />
            <rect x="534" y="394" width="110" height="48" fill=" none " />
            <g transform="translate(538, 414)" text-anchor="start">
                <text x="0" y="0"  font-family="Times New Roman" font-size="20">公称イン</text>
                <text x="0" y="24"  font-family="Times New Roman" font-size="20">ピーダンス</text>
            </g>
            <rect x="520" y="506" width="143" height="31" fill=" none " />
            <g transform="translate(524, 526)" text-anchor="start">
                <text x="0" y="0"  font-family="Times New Roman" font-size="20">周波数（Ｈｚ）</text>
            </g>
            <g  transform="rotate(270,365,391.5)">
            <rect x="279" y="376" width="172" height="31" fill=" none " />
            <g transform="translate(283, 396)" text-anchor="start">
                <text x="0" y="0"  font-family="Times New Roman" font-size="20">レスポンス（ｄｂ）</text>
            </g>
            </g>
            <rect x="387" y="332" width="26" height="36" fill=" none " />
            <g transform="translate(391, 352)" text-anchor="start">
                <text x="0" y="0"  font-family="Times New Roman" font-size="24">0</text>
            </g>
            <rect x="369" y="387" width="46" height="36" fill=" none " />
            <g transform="translate(373, 407)" text-anchor="start">
                <text x="0" y="0"  font-family="Times New Roman" font-size="24">-10</text>
            </g>
            <rect x="369" y="438" width="46" height="36" fill=" none " />
            <g transform="translate(373, 458)" text-anchor="start">
                <text x="0" y="0"  font-family="Times New Roman" font-size="24">-20</text>
            </g>
            <rect x="390" y="482" width="50" height="36" fill=" none " />
            <g transform="translate(394, 502)" text-anchor="start">
                <text x="0" y="0"  font-family="Times New Roman" font-size="24">100</text>
            </g>
            <rect x="438" y="482" width="50" height="36" fill=" none " />
            <g transform="translate(442, 502)" text-anchor="start">
                <text x="0" y="0"  font-family="Times New Roman" font-size="24">300</text>
            </g>
            <rect x="494" y="482" width="40" height="36" fill=" none " />
            <g transform="translate(498, 502)" text-anchor="start">
                <text x="0" y="0"  font-family="Times New Roman" font-size="24">1k</text>
            </g>
            <rect x="542" y="482" width="40" height="36" fill=" none " />
            <g transform="translate(546, 502)" text-anchor="start">
                <text x="0" y="0"  font-family="Times New Roman" font-size="24">3k</text>
            </g>
            <rect x="576" y="482" width="52" height="36" fill=" none " />
            <g transform="translate(580, 502)" text-anchor="start">
                <text x="0" y="0"  font-family="Times New Roman" font-size="24">10k</text>
            </g>
            <rect x="623" y="482" width="52" height="36" fill=" none " />
            <g transform="translate(627, 502)" text-anchor="start">
                <text x="0" y="0"  font-family="Times New Roman" font-size="24">20k</text>
            </g>
            <line x1="511"  y1="424" x2="537" y2="462" style="stroke:#000000;stroke-width:2;" />
            <line x1="511"  y1="418" x2="511" y2="484" style="stroke:#000000;stroke-width:2;" />
            <rect x="415" y="283" width="264" height="31" fill=" none " />
            <g transform="translate(419, 303)" text-anchor="start">
                <text x="0" y="0"  font-family="Times New Roman" font-size="20">レスポンス（スピーカ正面）</text>
            </g>
</g>
</svg>
