<?xml version="1.0" standalone="no"  ?>
<!DOCTYPE svg PUBLIC "-//W3C//DTD SVG 1.1//EN"
 "http://www.w3.org/Graphics/SVG/1.1/DTD/svg11.dtd">
<svg width="720" height="540" background-color="#FFFFFF" Encoding="UTF-8" xmlns="http://www.w3.org/2000/svg" xmlns:xlink = "http://www.w3.org/1999/xlink">
                        <g id="groupstart">
            <rect x="469" y="121" width="42" height="36" fill=" none " />
            <g transform="translate(473, 141)" text-anchor="start">
                <text x="0" y="0"  font-family="Times New Roman" font-size="24">Ｚ&#160;&#160;</text>
            </g>
            <rect x="599" y="109" width="80" height="36" fill=" none " />
            <g transform="translate(603, 129)" text-anchor="start">
                <text x="0" y="0"  font-family="Times New Roman" font-size="24">n&#160;
                 <tspan   font-family="Times New Roman" font-size="24">μ&#160;</tspan>
                 <tspan   font-family="Times New Roman" font-size="24">Ｓ</tspan></text>
            </g>
            <rect x="610" y="136" width="29" height="36" fill=" none " />
            <g transform="translate(614, 156)" text-anchor="start">
                <text x="0" y="0"  font-family="Times New Roman" font-size="24">ｄ</text>
            </g>
            <line x1="606"  y1="141" x2="666" y2="141" style="stroke:#000000;stroke-width:2;" />
            <rect x="637" y="117" width="26" height="29" fill=" none " />
            <g transform="translate(641, 137)" text-anchor="start">
                <text x="0" y="0"  font-family="Times New Roman" font-size="18">ｏ</text>
            </g>
            <rect x="628" y="142" width="26" height="29" fill=" none " />
            <g transform="translate(632, 162)" text-anchor="start">
                <text x="0" y="0"  font-family="Times New Roman" font-size="18">ｏ</text>
            </g>
            <rect x="492" y="122" width="37" height="36" fill=" none " />
            <g transform="translate(496, 142)" text-anchor="start">
                <text x="0" y="0"  font-family="Times New Roman" font-size="24">＝</text>
            </g>
            <rect x="546" y="122" width="65" height="36" fill=" none " />
            <g transform="translate(550, 142)" text-anchor="start">
                <text x="0" y="0"  font-family="Times New Roman" font-size="24">+&#160;
                 <tspan   font-family="Times New Roman" font-size="24">j</tspan>
                 <tspan   font-family="Times New Roman" font-size="24">ω</tspan></text>
            </g>
            <rect x="514" y="121" width="42" height="36" fill=" none " />
            <g transform="translate(518, 141)" text-anchor="start">
                <text x="0" y="0"  font-family="Times New Roman" font-size="24">Ｚ&#160;&#160;</text>
            </g>
            <rect x="531" y="130" width="25" height="29" fill=" none " />
            <g transform="translate(535, 150)" text-anchor="start">
                <text x="0" y="0"  font-family="Times New Roman" font-size="18">ｅ</text>
            </g>
            <rect x="612" y="109" width="24" height="31" fill=" none " />
            <g transform="translate(616, 129)" text-anchor="start">
                <text x="0" y="0"  font-family="Times New Roman" font-size="20">2</text>
            </g>
</g>
</svg>
