<?xml version="1.0" standalone="no"  ?>
<!DOCTYPE svg PUBLIC "-//W3C//DTD SVG 1.1//EN"
 "http://www.w3.org/Graphics/SVG/1.1/DTD/svg11.dtd">
<svg width="720" height="540" background-color="#FFFFFF" Encoding="UTF-8" xmlns="http://www.w3.org/2000/svg" xmlns:xlink = "http://www.w3.org/1999/xlink">
"type":"AnimEffectZoom","speed":"500"
                        <g id="groupstart">
            <rect x="54" y="186" width="94" height="31" fill=" none " />
            <g transform="translate(58, 206)" text-anchor="start">
                <text x="0" y="0"  font-family="Times New Roman" font-size="20">永久分極</text>
            </g>
            <rect x="66" y="222" width="41" height="108" fill="#FAC0F6" />
            <rect x="71" y="220" width="34" height="110" fill=" none " />
            <g transform="translate(75, 240)" text-anchor="start">
                <text x="0" y="0"  font-family="Times New Roman" font-size="16">エレクトレット</text>
            </g>
            <rect x="60" y="224" width="26" height="31" fill=" none " />
            <g transform="translate(64, 244)" text-anchor="start">
                <text x="0" y="0"  font-family="Times New Roman" font-size="20">+</text>
            </g>
            <rect x="60" y="236" width="26" height="31" fill=" none " />
            <g transform="translate(64, 256)" text-anchor="start">
                <text x="0" y="0"  font-family="Times New Roman" font-size="20">+</text>
            </g>
            <rect x="60" y="248" width="26" height="31" fill=" none " />
            <g transform="translate(64, 268)" text-anchor="start">
                <text x="0" y="0"  font-family="Times New Roman" font-size="20">+</text>
            </g>
            <rect x="60" y="260" width="26" height="31" fill=" none " />
            <g transform="translate(64, 280)" text-anchor="start">
                <text x="0" y="0"  font-family="Times New Roman" font-size="20">+</text>
            </g>
            <rect x="60" y="272" width="26" height="31" fill=" none " />
            <g transform="translate(64, 292)" text-anchor="start">
                <text x="0" y="0"  font-family="Times New Roman" font-size="20">+</text>
            </g>
            <rect x="60" y="284" width="26" height="31" fill=" none " />
            <g transform="translate(64, 304)" text-anchor="start">
                <text x="0" y="0"  font-family="Times New Roman" font-size="20">+</text>
            </g>
            <rect x="60" y="296" width="26" height="31" fill=" none " />
            <g transform="translate(64, 316)" text-anchor="start">
                <text x="0" y="0"  font-family="Times New Roman" font-size="20">+</text>
            </g>
            <rect x="89" y="217" width="25" height="22" fill=" none " />
            <g transform="translate(93, 237)" text-anchor="start">
                <text x="0" y="0"  font-family="Times New Roman" font-size="12">－</text>
            </g>
            <rect x="89" y="229" width="25" height="22" fill=" none " />
            <g transform="translate(93, 249)" text-anchor="start">
                <text x="0" y="0"  font-family="Times New Roman" font-size="12">－</text>
            </g>
            <rect x="88" y="241" width="25" height="22" fill=" none " />
            <g transform="translate(92, 261)" text-anchor="start">
                <text x="0" y="0"  font-family="Times New Roman" font-size="12">－</text>
            </g>
            <rect x="88" y="253" width="25" height="22" fill=" none " />
            <g transform="translate(92, 273)" text-anchor="start">
                <text x="0" y="0"  font-family="Times New Roman" font-size="12">－</text>
            </g>
            <rect x="88" y="265" width="25" height="22" fill=" none " />
            <g transform="translate(92, 285)" text-anchor="start">
                <text x="0" y="0"  font-family="Times New Roman" font-size="12">－</text>
            </g>
            <rect x="88" y="277" width="25" height="22" fill=" none " />
            <g transform="translate(92, 297)" text-anchor="start">
                <text x="0" y="0"  font-family="Times New Roman" font-size="12">－</text>
            </g>
            <rect x="87" y="289" width="25" height="22" fill=" none " />
            <g transform="translate(91, 309)" text-anchor="start">
                <text x="0" y="0"  font-family="Times New Roman" font-size="12">－</text>
            </g>
            <rect x="87" y="301" width="25" height="22" fill=" none " />
            <g transform="translate(91, 321)" text-anchor="start">
                <text x="0" y="0"  font-family="Times New Roman" font-size="12">－</text>
            </g>
            <rect x="60" y="212" width="26" height="31" fill=" none " />
            <g transform="translate(64, 232)" text-anchor="start">
                <text x="0" y="0"  font-family="Times New Roman" font-size="20">+</text>
            </g>
</g>
</svg>
