<?xml version="1.0" standalone="no"  ?>
<!DOCTYPE svg PUBLIC "-//W3C//DTD SVG 1.1//EN"
 "http://www.w3.org/Graphics/SVG/1.1/DTD/svg11.dtd">
<svg width="720" height="540" background-color="#FFFFFF" Encoding="UTF-8" xmlns="http://www.w3.org/2000/svg" xmlns:xlink = "http://www.w3.org/1999/xlink">
"type":"AnimEffectZoom","speed":"500"
                        <g id="groupstart">
            <rect x="18" y="441" width="295" height="99" fill="#C3FCFF" />
            <rect x="24" y="450" width="105" height="31" fill=" none " />
            <g transform="translate(28, 470)" text-anchor="start">
                <text x="0" y="0"  font-family="Times New Roman" font-size="20">Ｋ&#160;&#160;&#160;
                 <tspan   font-family="Times New Roman" font-size="20">＝</tspan>
                 <tspan   font-family="Times New Roman" font-size="20">Ｐ</tspan>
                 <tspan   font-family="Times New Roman" font-size="20">&#160;/</tspan>
                 <tspan   font-family="Times New Roman" font-size="20">Ｅ</tspan></text>
            </g>
            <rect x="42" y="459" width="24" height="24" fill=" none " />
            <g transform="translate(46, 479)" text-anchor="start">
                <text x="0" y="0"  font-family="Times New Roman" font-size="14">Ｓ</text>
            </g>
            <rect x="150" y="450" width="51" height="31" fill=" none " />
            <g transform="translate(154, 470)" text-anchor="start">
                <text x="0" y="0"  font-family="Times New Roman" font-size="20">＝－</text>
            </g>
            <line x1="196"  y1="466" x2="217" y2="466" style="stroke:#000000;stroke-width:2;" />
            <line x1="226"  y1="466" x2="289" y2="466" style="stroke:#000000;stroke-width:2;" />
            <rect x="192" y="438" width="32" height="31" fill=" none " />
            <g transform="translate(196, 458)" text-anchor="start">
                <text x="0" y="0"  font-family="Times New Roman" font-size="20">Ａ</text>
            </g>
            <rect x="190" y="461" width="28" height="31" fill=" none " />
            <g transform="translate(194, 481)" text-anchor="start">
                <text x="0" y="0"  font-family="Times New Roman" font-size="20">Ｓ</text>
            </g>
            <rect x="222" y="458" width="27" height="36" fill=" none " />
            <g transform="translate(226, 478)" text-anchor="start">
                <text x="0" y="0"  font-family="Times New Roman" font-size="24">ｓ</text>
            </g>
            <rect x="234" y="469" width="25" height="29" fill=" none " />
            <g transform="translate(238, 489)" text-anchor="start">
                <text x="0" y="0"  font-family="Times New Roman" font-size="18">ｃ</text>
            </g>
            <rect x="246" y="462" width="30" height="31" fill=" none " />
            <g transform="translate(250, 482)" text-anchor="start">
                <text x="0" y="0"  font-family="Times New Roman" font-size="20">＋</text>
            </g>
            <rect x="264" y="458" width="27" height="36" fill=" none " />
            <g transform="translate(268, 478)" text-anchor="start">
                <text x="0" y="0"  font-family="Times New Roman" font-size="24">ｓ</text>
            </g>
            <rect x="244" y="431" width="27" height="36" fill=" none " />
            <g transform="translate(248, 451)" text-anchor="start">
                <text x="0" y="0"  font-family="Times New Roman" font-size="24">ｓ</text>
            </g>
            <rect x="256" y="442" width="25" height="29" fill=" none " />
            <g transform="translate(260, 462)" text-anchor="start">
                <text x="0" y="0"  font-family="Times New Roman" font-size="18">ｃ</text>
            </g>
            <rect x="118" y="460" width="33" height="22" fill=" none " />
            <g transform="translate(122, 480)" text-anchor="start">
                <text x="0" y="0"  font-family="Times New Roman" font-size="12">Ｉ&#160;Ｎ</text>
            </g>
            <rect x="93" y="508" width="45" height="22" fill=" none " />
            <g transform="translate(97, 528)" text-anchor="start">
                <text x="0" y="0"  font-family="Times New Roman" font-size="12">ＯＵＴ</text>
            </g>
            <rect x="24" y="498" width="80" height="31" fill=" none " />
            <g transform="translate(28, 518)" text-anchor="start">
                <text x="0" y="0"  font-family="Times New Roman" font-size="20">Ｋ&#160;&#160;&#160;
                 <tspan   font-family="Times New Roman" font-size="20">＝</tspan>
                 <tspan   font-family="Times New Roman" font-size="20">Ｅ</tspan></text>
            </g>
            <rect x="41" y="507" width="28" height="24" fill=" none " />
            <g transform="translate(45, 527)" text-anchor="start">
                <text x="0" y="0"  font-family="Times New Roman" font-size="14">Ｍ</text>
            </g>
            <rect x="150" y="498" width="51" height="31" fill=" none " />
            <g transform="translate(154, 518)" text-anchor="start">
                <text x="0" y="0"  font-family="Times New Roman" font-size="20">＝－</text>
            </g>
            <line x1="196"  y1="514" x2="229" y2="514" style="stroke:#000000;stroke-width:2;" />
            <rect x="188" y="486" width="45" height="31" fill=" none " />
            <g transform="translate(192, 506)" text-anchor="start">
                <text x="0" y="0"  font-family="Times New Roman" font-size="20">ＡＳ</text>
            </g>
            <rect x="192" y="509" width="29" height="31" fill=" none " />
            <g transform="translate(196, 529)" text-anchor="start">
                <text x="0" y="0"  font-family="Times New Roman" font-size="20">Ｃ</text>
            </g>
            <rect x="124" y="498" width="37" height="31" fill=" none " />
            <g transform="translate(128, 518)" text-anchor="start">
                <text x="0" y="0"  font-family="Times New Roman" font-size="20">&#160;/
                 <tspan   font-family="Times New Roman" font-size="20">P</tspan></text>
            </g>
            <line x1="235"  y1="514" x2="298" y2="514" style="stroke:#000000;stroke-width:2;" />
            <rect x="231" y="506" width="27" height="36" fill=" none " />
            <g transform="translate(235, 526)" text-anchor="start">
                <text x="0" y="0"  font-family="Times New Roman" font-size="24">ｓ</text>
            </g>
            <rect x="243" y="517" width="25" height="29" fill=" none " />
            <g transform="translate(247, 537)" text-anchor="start">
                <text x="0" y="0"  font-family="Times New Roman" font-size="18">ｃ</text>
            </g>
            <rect x="255" y="510" width="30" height="31" fill=" none " />
            <g transform="translate(259, 530)" text-anchor="start">
                <text x="0" y="0"  font-family="Times New Roman" font-size="20">＋</text>
            </g>
            <rect x="273" y="506" width="27" height="36" fill=" none " />
            <g transform="translate(277, 526)" text-anchor="start">
                <text x="0" y="0"  font-family="Times New Roman" font-size="24">ｓ</text>
            </g>
            <rect x="255" y="486" width="24" height="31" fill=" none " />
            <g transform="translate(259, 506)" text-anchor="start">
                <text x="0" y="0"  font-family="Times New Roman" font-size="20">1</text>
            </g>
</g>
</svg>
