<?xml version="1.0" standalone="no"  ?>
<!DOCTYPE svg PUBLIC "-//W3C//DTD SVG 1.1//EN"
 "http://www.w3.org/Graphics/SVG/1.1/DTD/svg11.dtd">
<svg width="720" height="540" background-color="#FFFFFF" Encoding="UTF-8" xmlns="http://www.w3.org/2000/svg" xmlns:xlink = "http://www.w3.org/1999/xlink">
                        <g id="groupstart">
            <rect x="413" y="305" width="277" height="164" fill="#FFFFFF" />
            <line x1="412"  y1="470" x2="691" y2="470" style="stroke:#000000;stroke-width:3;" />
            <line x1="413"  y1="306" x2="413" y2="470" style="stroke:#000000;stroke-width:3;" />
            <line x1="654"  y1="313" x2="654" y2="477" style="stroke:#000000;stroke-width:2;" />
            <line x1="413"  y1="444" x2="429" y2="444" style="stroke:#000000;stroke-width:3;" />
            <line x1="413"  y1="389" x2="429" y2="389" style="stroke:#000000;stroke-width:3;" />
            <line x1="468"  y1="455" x2="468" y2="471" style="stroke:#000000;stroke-width:3;" />
            <line x1="551"  y1="455" x2="551" y2="471" style="stroke:#000000;stroke-width:3;" />
            <line x1="635"  y1="458" x2="635" y2="474" style="stroke:#000000;stroke-width:3;" />
            <rect x="456" y="500" width="143" height="31" fill=" none " />
            <g transform="translate(460, 520)" text-anchor="start">
                <text x="0" y="0"  font-family="Times New Roman" font-size="20">周波数（Ｈｚ）</text>
            </g>
            <g  transform="rotate(270,362,376.5)">
            <rect x="281" y="361" width="162" height="31" fill=" none " />
            <g transform="translate(285, 381)" text-anchor="start">
                <text x="0" y="0"  font-family="Times New Roman" font-size="20">電圧感度（ｄＢ）</text>
            </g>
            </g>
            <rect x="601" y="506" width="114" height="31" fill=" none " />
            <g transform="translate(605, 526)" text-anchor="start">
                <text x="0" y="0"  font-family="Times New Roman" font-size="20">共振周波数</text>
            </g>
            <rect x="375" y="318" width="41" height="31" fill=" none " />
            <g transform="translate(379, 338)" text-anchor="start">
                <text x="0" y="0"  font-family="Times New Roman" font-size="20">-52</text>
            </g>
            <rect x="375" y="374" width="41" height="31" fill=" none " />
            <g transform="translate(379, 394)" text-anchor="start">
                <text x="0" y="0"  font-family="Times New Roman" font-size="20">-55</text>
            </g>
            <rect x="375" y="429" width="41" height="31" fill=" none " />
            <g transform="translate(379, 449)" text-anchor="start">
                <text x="0" y="0"  font-family="Times New Roman" font-size="20">-58</text>
            </g>
            <rect x="444" y="473" width="44" height="31" fill=" none " />
            <g transform="translate(448, 493)" text-anchor="start">
                <text x="0" y="0"  font-family="Times New Roman" font-size="20">100</text>
            </g>
            <rect x="533" y="473" width="36" height="31" fill=" none " />
            <g transform="translate(537, 493)" text-anchor="start">
                <text x="0" y="0"  font-family="Times New Roman" font-size="20">1k</text>
            </g>
            <rect x="612" y="473" width="46" height="31" fill=" none " />
            <g transform="translate(616, 493)" text-anchor="start">
                <text x="0" y="0"  font-family="Times New Roman" font-size="20">10k</text>
            </g>
            <line x1="659"  y1="475" x2="671" y2="505" style="stroke:#000000;stroke-width:2;" />
            <line x1="413"  y1="330" x2="429" y2="330" style="stroke:#000000;stroke-width:3;" />
</g>
</svg>
