<?xml version="1.0" standalone="no"  ?>
<!DOCTYPE svg PUBLIC "-//W3C//DTD SVG 1.1//EN"
 "http://www.w3.org/Graphics/SVG/1.1/DTD/svg11.dtd">
<svg width="720" height="540" background-color="#FFFFFF" Encoding="UTF-8" xmlns="http://www.w3.org/2000/svg" xmlns:xlink = "http://www.w3.org/1999/xlink">
"type":"AnimEffectWipe","speed":"500"
                        <g id="groupstart">
            <rect x="57" y="296" width="39" height="26" fill=" none " />
            <g transform="translate(61, 316)" text-anchor="start">
                <text x="0" y="0"  font-family="Times New Roman" font-size="16">ＳＡ</text>
            </g>
            <rect x="36" y="282" width="35" height="36" fill=" none " />
            <g transform="translate(40, 302)" text-anchor="start">
                <text x="0" y="0"  font-family="Times New Roman" font-size="24">Ｋ</text>
            </g>
            <rect x="104" y="296" width="43" height="26" fill=" none " />
            <g transform="translate(108, 316)" text-anchor="start">
                <text x="0" y="0"  font-family="Times New Roman" font-size="16">ＭＡ</text>
            </g>
            <rect x="82" y="282" width="35" height="36" fill=" none " />
            <g transform="translate(86, 302)" text-anchor="start">
                <text x="0" y="0"  font-family="Times New Roman" font-size="24">Ｋ</text>
            </g>
            <rect x="132" y="282" width="37" height="36" fill=" none " />
            <g transform="translate(136, 302)" text-anchor="start">
                <text x="0" y="0"  font-family="Times New Roman" font-size="24">＝</text>
            </g>
            <rect x="181" y="306" width="33" height="26" fill=" none " />
            <g transform="translate(185, 326)" text-anchor="start">
                <text x="0" y="0"  font-family="Times New Roman" font-size="16">Ｉ&#160;１</text>
            </g>
            <line x1="167"  y1="300" x2="209" y2="300" style="stroke:#000000;stroke-width:2;" />
            <rect x="160" y="295" width="33" height="36" fill=" none " />
            <g transform="translate(164, 315)" text-anchor="start">
                <text x="0" y="0"  font-family="Times New Roman" font-size="24">Ｅ</text>
            </g>
            <rect x="160" y="265" width="33" height="36" fill=" none " />
            <g transform="translate(164, 285)" text-anchor="start">
                <text x="0" y="0"  font-family="Times New Roman" font-size="24">Ｅ</text>
            </g>
            <rect x="180" y="278" width="36" height="26" fill=" none " />
            <g transform="translate(184, 298)" text-anchor="start">
                <text x="0" y="0"  font-family="Times New Roman" font-size="16">Ｏ１</text>
            </g>
            <rect x="235" y="306" width="38" height="26" fill=" none " />
            <g transform="translate(239, 326)" text-anchor="start">
                <text x="0" y="0"  font-family="Times New Roman" font-size="16">Ｏ２</text>
            </g>
            <line x1="221"  y1="300" x2="263" y2="300" style="stroke:#000000;stroke-width:2;" />
            <rect x="214" y="295" width="33" height="36" fill=" none " />
            <g transform="translate(218, 315)" text-anchor="start">
                <text x="0" y="0"  font-family="Times New Roman" font-size="24">Ｅ</text>
            </g>
            <rect x="214" y="265" width="33" height="36" fill=" none " />
            <g transform="translate(218, 285)" text-anchor="start">
                <text x="0" y="0"  font-family="Times New Roman" font-size="24">Ｅ</text>
            </g>
            <rect x="234" y="278" width="35" height="26" fill=" none " />
            <g transform="translate(238, 298)" text-anchor="start">
                <text x="0" y="0"  font-family="Times New Roman" font-size="16">Ｉ&#160;２</text>
            </g>
            <rect x="289" y="306" width="35" height="26" fill=" none " />
            <g transform="translate(293, 326)" text-anchor="start">
                <text x="0" y="0"  font-family="Times New Roman" font-size="16">Ｉ&#160;３</text>
            </g>
            <line x1="275"  y1="300" x2="317" y2="300" style="stroke:#000000;stroke-width:2;" />
            <rect x="268" y="295" width="33" height="36" fill=" none " />
            <g transform="translate(272, 315)" text-anchor="start">
                <text x="0" y="0"  font-family="Times New Roman" font-size="24">Ｅ</text>
            </g>
            <rect x="268" y="265" width="33" height="36" fill=" none " />
            <g transform="translate(272, 285)" text-anchor="start">
                <text x="0" y="0"  font-family="Times New Roman" font-size="24">Ｅ</text>
            </g>
            <rect x="288" y="278" width="38" height="26" fill=" none " />
            <g transform="translate(292, 298)" text-anchor="start">
                <text x="0" y="0"  font-family="Times New Roman" font-size="16">Ｏ３</text>
            </g>
</g>
</svg>
