<?xml version="1.0" standalone="no"  ?>
<!DOCTYPE svg PUBLIC "-//W3C//DTD SVG 1.1//EN"
 "http://www.w3.org/Graphics/SVG/1.1/DTD/svg11.dtd">
<svg width="720" height="540" background-color="#FFFFFF" Encoding="UTF-8" xmlns="http://www.w3.org/2000/svg" xmlns:xlink = "http://www.w3.org/1999/xlink">
                        <g id="groupstart">
            <line x1="208"  y1="412" x2="208" y2="470" style="stroke:#604000;stroke-width:2;" />
            <line x1="219"  y1="411" x2="274" y2="411" style="stroke:#604000;stroke-width:2;" />
            <line x1="208"  y1="423" x2="274" y2="423" style="stroke:#604000;stroke-width:2;" />
            <line x1="192"  y1="388" x2="192" y2="418" style="stroke:#604000;stroke-width:4;" />
            <line x1="180"  y1="403" x2="192" y2="403" style="stroke:#604000;stroke-width:2;" />
            <line x1="173"  y1="394" x2="173" y2="411" style="stroke:#604000;stroke-width:4;" />
            <line x1="180"  y1="394" x2="180" y2="411" style="stroke:#604000;stroke-width:4;" />
            <line x1="145"  y1="403" x2="172" y2="403" style="stroke:#604000;stroke-width:2;" />
            <line x1="192"  y1="411" x2="207" y2="411" style="stroke:#604000;stroke-width:2;" />
            <line x1="192"  y1="394" x2="207" y2="394" style="stroke:#604000;stroke-width:2;" />
            <line x1="208"  y1="394" x2="220" y2="411" style="stroke:#604000;stroke-width:2;" />
            <rect x="137" y="492" width="147" height="31" fill=" none " />
            <g transform="translate(141, 512)" text-anchor="start">
                <text x="0" y="0"  font-family="Times New Roman" font-size="20">結合コンデンサ</text>
            </g>
            <rect x="239" y="371" width="54" height="31" fill=" none " />
            <g transform="translate(243, 391)" text-anchor="start">
                <text x="0" y="0"  font-family="Times New Roman" font-size="20">出力</text>
            </g>
            <rect x="169" y="361" width="55" height="29" fill=" none " />
            <g transform="translate(173, 381)" text-anchor="start">
                <text x="0" y="0"  font-family="Times New Roman" font-size="18">ＦＥＴ</text>
            </g>
            <ellipse cx="270.5" cy="410.5" rx="8.5" ry="8.5" fill="#604000" />
            <ellipse cx="270.5" cy="410.5" rx="4.5" ry="4.5" fill="#806202" />
            <ellipse cx="270.5" cy="423.5" rx="8.5" ry="8.5" fill="#604000" />
            <ellipse cx="270.5" cy="423.5" rx="4.5" ry="4.5" fill="#806202" />
            <line x1="180"  y1="420" x2="204" y2="498" style="stroke:#000000;stroke-width:1;" />
</g>
</svg>
