<?xml version="1.0" standalone="no"  ?>
<!DOCTYPE svg PUBLIC "-//W3C//DTD SVG 1.1//EN"
 "http://www.w3.org/Graphics/SVG/1.1/DTD/svg11.dtd">
<svg width="720" height="540" background-color="#FFFFFF" Encoding="UTF-8" xmlns="http://www.w3.org/2000/svg" xmlns:xlink = "http://www.w3.org/1999/xlink">
"type":"AnimEffectWipe","speed":"500"
                        <g id="groupstart">
            <rect x="26" y="362" width="203" height="35" fill="#D9FFBD" />
            <rect x="117" y="374" width="39" height="26" fill=" none " />
            <g transform="translate(121, 394)" text-anchor="start">
                <text x="0" y="0"  font-family="Times New Roman" font-size="16">ＳＡ</text>
            </g>
            <rect x="96" y="360" width="35" height="36" fill=" none " />
            <g transform="translate(100, 380)" text-anchor="start">
                <text x="0" y="0"  font-family="Times New Roman" font-size="24">Ｋ</text>
            </g>
            <rect x="52" y="374" width="43" height="26" fill=" none " />
            <g transform="translate(56, 394)" text-anchor="start">
                <text x="0" y="0"  font-family="Times New Roman" font-size="16">ＭＡ</text>
            </g>
            <rect x="30" y="360" width="35" height="36" fill=" none " />
            <g transform="translate(34, 380)" text-anchor="start">
                <text x="0" y="0"  font-family="Times New Roman" font-size="24">Ｋ</text>
            </g>
            <rect x="87" y="360" width="22" height="41" fill=" none " />
            <g transform="translate(91, 380)" text-anchor="start">
                <text x="0" y="0"  font-family="Times New Roman" font-size="28">/</text>
            </g>
            <rect x="150" y="360" width="73" height="36" fill=" none " />
            <g transform="translate(154, 380)" text-anchor="start">
                <text x="0" y="0"  font-family="Times New Roman" font-size="20">＝
                 <tspan   font-family="Times New Roman" font-size="24">Ｊ&#160;&#160;Ｚ</tspan></text>
            </g>
            <rect x="178" y="374" width="28" height="26" fill=" none " />
            <g transform="translate(182, 394)" text-anchor="start">
                <text x="0" y="0"  font-family="Times New Roman" font-size="16">Ａ</text>
            </g>
</g>
</svg>
