<?xml version="1.0" standalone="no"  ?>
<!DOCTYPE svg PUBLIC "-//W3C//DTD SVG 1.1//EN"
 "http://www.w3.org/Graphics/SVG/1.1/DTD/svg11.dtd">
<svg width="720" height="540" background-color="#FFFFFF" Encoding="UTF-8" xmlns="http://www.w3.org/2000/svg" xmlns:xlink = "http://www.w3.org/1999/xlink">
                        <g id="groupstart">
            <line x1="463"  y1="148" x2="551" y2="148" style="stroke:#40FE04;stroke-width:1.5;" />
            <line x1="463"  y1="154" x2="551" y2="154" style="stroke:#40FE04;stroke-width:1.5;" />
            <ellipse cx="564" cy="164.5" rx="4" ry="3.5" fill="#FF0033" />
            <ellipse cx="564" cy="174.5" rx="4" ry="3.5" fill="#FF0033" />
            <ellipse cx="564" cy="183.5" rx="4" ry="3.5" fill="#FF0033" />
            <line x1="559"  y1="112" x2="594" y2="112" style="stroke:#006600;stroke-width:2;" />
            <line x1="557"  y1="65" x2="684" y2="65" style="stroke:#006600;stroke-width:2;" />
            <line x1="535"  y1="111" x2="560" y2="154" style="stroke:#008000;stroke-width:2;" />
            <line x1="510"  y1="65" x2="557" y2="145" style="stroke:#006600;stroke-width:2;" />
            <line x1="615"  y1="112" x2="682" y2="112" style="stroke:#006600;stroke-width:2;" />
            <ellipse cx="687" cy="112" rx="9" ry="9" fill="#006600" />
            <ellipse cx="687" cy="112" rx="5" ry="5" fill="#006600" />
            <line x1="645"  y1="65" x2="682" y2="65" style="stroke:#006600;stroke-width:2;" />
            <ellipse cx="687" cy="65" rx="9" ry="9" fill="#006600" />
            <ellipse cx="687" cy="65" rx="5" ry="5" fill="#006600" />
            <line x1="594"  y1="96" x2="594" y2="125" style="stroke:#345400;stroke-width:2;" />
            <rect x="597.25" y="103.25" width="6.5" height="15.5" fill="#345400" />
            <rect x="598" y="104" width="5" height="14" fill="#477200" />
            <line x1="608"  y1="96" x2="608" y2="125" style="stroke:#345400;stroke-width:2;" />
            <rect x="611.25" y="103.25" width="6.5" height="15.5" fill="#345400" />
            <rect x="612" y="104" width="5" height="14" fill="#477200" />
            <ellipse cx="648.5" cy="112.5" rx="6.5" ry="6.5" fill="#006600" />
            <ellipse cx="648.5" cy="112.5" rx="2.5" ry="2.5" fill="#00F400" />
            <ellipse cx="648.5" cy="65.5" rx="6.5" ry="6.5" fill="#006600" />
            <ellipse cx="648.5" cy="65.5" rx="2.5" ry="2.5" fill="#00F400" />
            <rect x="635" y="121" width="85" height="31" fill=" none " />
            <g transform="translate(639, 141)" text-anchor="start">
                <text x="0" y="0"  font-family="Times New Roman" font-size="20">Ｅ
                 <tspan   font-family="Times New Roman" font-size="20">&#160;&#160;&#160;出力</tspan></text>
            </g>
            <rect x="653" y="125" width="26" height="31" fill=" none " />
            <g transform="translate(657, 145)" text-anchor="start">
                <text x="0" y="0"  font-family="Times New Roman" font-size="20">n</text>
            </g>
</g>
</svg>
