<?xml version="1.0" standalone="no"  ?>
<!DOCTYPE svg PUBLIC "-//W3C//DTD SVG 1.1//EN"
 "http://www.w3.org/Graphics/SVG/1.1/DTD/svg11.dtd">
<svg width="720" height="540" background-color="#FFFFFF" Encoding="UTF-8" xmlns="http://www.w3.org/2000/svg" xmlns:xlink = "http://www.w3.org/1999/xlink">
                        <g id="groupstart">
            <rect x="69" y="152" width="242" height="36" fill=" none " />
            <g transform="translate(73, 172)" text-anchor="start">
                <text x="0" y="0"  font-family="Times New Roman" font-size="24">{
                 <tspan   font-family="Times New Roman" font-size="24">ｒ&#160;</tspan>
                 <tspan   font-family="Times New Roman" font-size="20">+ｊ&#160;(ωｍ&#160;-ｓ&#160;&#160;ω)</tspan>
                 <tspan   font-family="Times New Roman" font-size="20">}</tspan>
                 <tspan   font-family="Times New Roman" font-size="20">&#160;&#160;Ｒ&#160;&#160;+Ａ</tspan></text>
            </g>
            <rect x="176" y="125" width="39" height="31" fill=" none " />
            <g transform="translate(180, 145)" text-anchor="start">
                <text x="0" y="0"  font-family="Times New Roman" font-size="20">AS</text>
            </g>
            <line x1="76"  y1="156" x2="296" y2="156" style="stroke:#000000;stroke-width:2;" />
            <rect x="27" y="127" width="30" height="36" fill=" none " />
            <g transform="translate(31, 147)" text-anchor="start">
                <text x="0" y="0"  font-family="Times New Roman" font-size="24">E</text>
            </g>
            <rect x="28" y="150" width="29" height="36" fill=" none " />
            <g transform="translate(32, 170)" text-anchor="start">
                <text x="0" y="0"  font-family="Times New Roman" font-size="24">P</text>
            </g>
            <rect x="52" y="140" width="28" height="36" fill=" none " />
            <g transform="translate(56, 160)" text-anchor="start">
                <text x="0" y="0"  font-family="Times New Roman" font-size="24">=</text>
            </g>
            <line x1="31"  y1="156" x2="55" y2="156" style="stroke:#000000;stroke-width:2;" />
            <rect x="294" y="148" width="24" height="29" fill=" none " />
            <g transform="translate(298, 168)" text-anchor="start">
                <text x="0" y="0"  font-family="Times New Roman" font-size="18">2</text>
            </g>
            <rect x="260" y="161" width="24" height="31" fill=" none " />
            <g transform="translate(264, 181)" text-anchor="start">
                <text x="0" y="0"  font-family="Times New Roman" font-size="20">o</text>
            </g>
            <rect x="234" y="153" width="21" height="36" fill=" none " />
            <g transform="translate(238, 173)" text-anchor="start">
                <text x="0" y="0"  font-family="Times New Roman" font-size="24">/</text>
            </g>
            <rect x="192" y="153" width="21" height="36" fill=" none " />
            <g transform="translate(196, 173)" text-anchor="start">
                <text x="0" y="0"  font-family="Times New Roman" font-size="24">/</text>
            </g>
            <rect x="27" y="66" width="61" height="36" fill=" none " />
            <g transform="translate(31, 86)" text-anchor="start">
                <text x="0" y="0"  font-family="Times New Roman" font-size="24">Ｅ&#160;
                 <tspan   font-family="Times New Roman" font-size="24">＝</tspan></text>
            </g>
            <rect x="81" y="54" width="51" height="36" fill=" none " />
            <g transform="translate(85, 74)" text-anchor="start">
                <text x="0" y="0"  font-family="Times New Roman" font-size="24">ＡＳ</text>
            </g>
            <rect x="93" y="76" width="28" height="36" fill=" none " />
            <g transform="translate(97, 96)" text-anchor="start">
                <text x="0" y="0"  font-family="Times New Roman" font-size="24">ｚ</text>
            </g>
            <rect x="123" y="66" width="32" height="36" fill=" none " />
            <g transform="translate(127, 86)" text-anchor="start">
                <text x="0" y="0"  font-family="Times New Roman" font-size="24">Ｐ</text>
            </g>
            <line x1="88"  y1="85" x2="130" y2="85" style="stroke:#000000;stroke-width:2;" />
            <rect x="0" y="98" width="98" height="36" fill=" none " />
            <g transform="translate(4, 118)" text-anchor="start">
                <text x="0" y="0"  font-family="Times New Roman" font-size="24">これより</text>
            </g>
</g>
</svg>
