<?xml version="1.0" standalone="no"  ?>
<!DOCTYPE svg PUBLIC "-//W3C//DTD SVG 1.1//EN"
 "http://www.w3.org/Graphics/SVG/1.1/DTD/svg11.dtd">
<svg width="720" height="540" background-color="#FFFFFF" Encoding="UTF-8" xmlns="http://www.w3.org/2000/svg" xmlns:xlink = "http://www.w3.org/1999/xlink">
"type":"AnimEffectWipe","speed":"500"
                        <g id="groupstart">
            <line x1="661"  y1="406" x2="661" y2="485" style="stroke:#000000;stroke-width:3;" />
            <line x1="641"  y1="476" x2="641" y2="485" style="stroke:#000000;stroke-width:3;" />
            <line x1="651"  y1="457" x2="660" y2="457" style="stroke:#000000;stroke-width:3;" />
            <line x1="651"  y1="439" x2="660" y2="439" style="stroke:#000000;stroke-width:3;" />
            <line x1="651"  y1="420" x2="660" y2="420" style="stroke:#000000;stroke-width:3;" />
            <g  transform="rotate(270,702,404.5)">
            <rect x="580" y="389" width="244" height="31" fill=" none " />
            <g transform="translate(584, 409)" text-anchor="start">
                <text x="0" y="0"  font-family="Times New Roman" font-size="20">電気インピーダンス（Ω）</text>
            </g>
            </g>
            <rect x="659" y="405" width="38" height="36" fill=" none " />
            <g transform="translate(663, 425)" text-anchor="start">
                <text x="0" y="0"  font-family="Times New Roman" font-size="24">50</text>
            </g>
            <rect x="659" y="423" width="38" height="36" fill=" none " />
            <g transform="translate(663, 443)" text-anchor="start">
                <text x="0" y="0"  font-family="Times New Roman" font-size="24">30</text>
            </g>
            <rect x="659" y="444" width="38" height="36" fill=" none " />
            <g transform="translate(663, 464)" text-anchor="start">
                <text x="0" y="0"  font-family="Times New Roman" font-size="24">20</text>
            </g>
            <rect x="659" y="471" width="38" height="36" fill=" none " />
            <g transform="translate(663, 491)" text-anchor="start">
                <text x="0" y="0"  font-family="Times New Roman" font-size="24">10</text>
            </g>
</g>
</svg>
