<?xml version="1.0" standalone="no"  ?>
<!DOCTYPE svg PUBLIC "-//W3C//DTD SVG 1.1//EN"
 "http://www.w3.org/Graphics/SVG/1.1/DTD/svg11.dtd">
<svg width="720" height="540" background-color="#FFFFFF" Encoding="UTF-8" xmlns="http://www.w3.org/2000/svg" xmlns:xlink = "http://www.w3.org/1999/xlink">
"type":"AnimEffectWipe","speed":"500"
                        <g id="groupstart">
            <rect x="29" y="204" width="228" height="36" fill=" none " />
            <g transform="translate(33, 224)" text-anchor="start">
                <text x="0" y="0"  font-family="Times New Roman" font-size="24">振動板に加わる力は</text>
            </g>
            <rect x="13" y="243" width="365" height="59" fill="#E2FBC3" />
            <rect x="12" y="251" width="150" height="41" fill=" none " />
            <g transform="translate(16, 271)" text-anchor="start">
                <text x="0" y="0"  font-family="Times New Roman" font-size="20">Ｆ&#160;
                 <tspan   font-family="Times New Roman" font-size="20">＝</tspan>
                 <tspan   font-family="Times New Roman" font-size="20">ＰＳ&#160;</tspan>
                 <tspan   font-family="Times New Roman" font-size="20">＝－</tspan>
                 <tspan   font-family="Times New Roman" font-size="28">κ</tspan></text>
            </g>
            <line x1="153"  y1="274" x2="195" y2="274" style="stroke:#000000;stroke-width:2;" />
            <rect x="156" y="270" width="32" height="31" fill=" none " />
            <g transform="translate(160, 290)" text-anchor="start">
                <text x="0" y="0"  font-family="Times New Roman" font-size="20">Ｑ</text>
            </g>
            <rect x="152" y="248" width="44" height="31" fill=" none " />
            <g transform="translate(156, 268)" text-anchor="start">
                <text x="0" y="0"  font-family="Times New Roman" font-size="20">ＳＸ</text>
            </g>
            <rect x="192" y="258" width="28" height="31" fill=" none " />
            <g transform="translate(196, 278)" text-anchor="start">
                <text x="0" y="0"  font-family="Times New Roman" font-size="20">Ｓ</text>
            </g>
            <rect x="210" y="258" width="56" height="31" fill=" none " />
            <g transform="translate(214, 278)" text-anchor="start">
                <text x="0" y="0"  font-family="Times New Roman" font-size="20">&#160;
                 <tspan   font-family="Times New Roman" font-size="20">＝－</tspan></text>
            </g>
            <line x1="261"  y1="274" x2="297" y2="274" style="stroke:#000000;stroke-width:2;" />
            <line x1="308"  y1="274" x2="350" y2="274" style="stroke:#000000;stroke-width:2;" />
            <rect x="311" y="270" width="32" height="31" fill=" none " />
            <g transform="translate(315, 290)" text-anchor="start">
                <text x="0" y="0"  font-family="Times New Roman" font-size="20">Ｑ</text>
            </g>
            <rect x="341" y="258" width="31" height="31" fill=" none " />
            <g transform="translate(345, 278)" text-anchor="start">
                <text x="0" y="0"  font-family="Times New Roman" font-size="20">Ｖ</text>
            </g>
            <rect x="320" y="243" width="33" height="31" fill=" none " />
            <g transform="translate(324, 263)" text-anchor="start">
                <text x="0" y="0"  font-family="Times New Roman" font-size="20">Ｓ&#160;</text>
            </g>
            <rect x="338" y="236" width="24" height="31" fill=" none " />
            <g transform="translate(342, 256)" text-anchor="start">
                <text x="0" y="0"  font-family="Times New Roman" font-size="20">2</text>
            </g>
            <rect x="291" y="236" width="48" height="41" fill=" none " />
            <g transform="translate(295, 256)" text-anchor="start">
                <text x="0" y="0"  font-family="Times New Roman" font-size="20">&#160;
                 <tspan   font-family="Times New Roman" font-size="28">κ</tspan></text>
            </g>
            <rect x="256" y="267" width="23" height="36" fill=" none " />
            <g transform="translate(260, 287)" text-anchor="start">
                <text x="0" y="0"  font-family="Times New Roman" font-size="24">ｊ</text>
            </g>
            <rect x="265" y="267" width="38" height="36" fill=" none " />
            <g transform="translate(269, 287)" text-anchor="start">
                <text x="0" y="0"  font-family="Times New Roman" font-size="24">ω</text>
            </g>
            <rect x="270" y="242" width="26" height="36" fill=" none " />
            <g transform="translate(274, 262)" text-anchor="start">
                <text x="0" y="0"  font-family="Times New Roman" font-size="24">1</text>
            </g>
</g>
</svg>
