<?xml version="1.0" standalone="no"  ?>
<!DOCTYPE svg PUBLIC "-//W3C//DTD SVG 1.1//EN"
 "http://www.w3.org/Graphics/SVG/1.1/DTD/svg11.dtd">
<svg width="720" height="540" background-color="#FFFFFF" Encoding="UTF-8" xmlns="http://www.w3.org/2000/svg" xmlns:xlink = "http://www.w3.org/1999/xlink">
                        <g id="groupstart">
            <rect x="12" y="177" width="310" height="164" fill="#F5FAFF" />
            <rect x="12" y="175" width="110" height="36" fill=" none " />
            <g transform="translate(16, 195)" text-anchor="start">
                <text x="0" y="0"  font-family="Times New Roman" font-size="24">抵抗制御</text>
            </g>
            <rect x="54" y="203" width="34" height="36" fill=" none " />
            <g transform="translate(58, 223)" text-anchor="start">
                <text x="0" y="0"  font-family="Times New Roman" font-size="24">Ａ</text>
            </g>
            <rect x="75" y="199" width="24" height="31" fill=" none " />
            <g transform="translate(79, 219)" text-anchor="start">
                <text x="0" y="0"  font-family="Times New Roman" font-size="20">2</text>
            </g>
            <rect x="84" y="203" width="21" height="36" fill=" none " />
            <g transform="translate(88, 223)" text-anchor="start">
                <text x="0" y="0"  font-family="Times New Roman" font-size="24">/</text>
            </g>
            <rect x="90" y="203" width="34" height="36" fill=" none " />
            <g transform="translate(94, 223)" text-anchor="start">
                <text x="0" y="0"  font-family="Times New Roman" font-size="24">Ｒ</text>
            </g>
            <rect x="114" y="202" width="99" height="36" fill=" none " />
            <g transform="translate(118, 222)" text-anchor="start">
                <text x="0" y="0"  font-family="Times New Roman" font-size="24">を大きく</text>
            </g>
            <rect x="54" y="227" width="258" height="36" fill=" none " />
            <g transform="translate(58, 247)" text-anchor="start">
                <text x="0" y="0"  font-family="Times New Roman" font-size="24">質量、スチフネス小さく</text>
            </g>
            <rect x="54" y="245" width="225" height="46" fill=" none " />
            <g transform="translate(58, 265)" text-anchor="start">
                <text x="0" y="0"  font-family="Times New Roman" font-size="24">放射抵抗&#160;
                 <tspan   font-family="Times New Roman" font-size="32">ｒ&#160;</tspan>
                 <tspan   font-family="Times New Roman" font-size="24">を大きく</tspan></text>
            </g>
</g>
</svg>
