<?xml version="1.0" standalone="no"  ?>
<!DOCTYPE svg PUBLIC "-//W3C//DTD SVG 1.1//EN"
 "http://www.w3.org/Graphics/SVG/1.1/DTD/svg11.dtd">
<svg width="720" height="540" background-color="#FFFFFF" Encoding="UTF-8" xmlns="http://www.w3.org/2000/svg" xmlns:xlink = "http://www.w3.org/1999/xlink">
"type":"AnimEffectWipe","speed":"500"
                        <g id="groupstart">
            <rect x="43" y="117" width="52" height="36" fill=" none " />
            <g transform="translate(47, 137)" text-anchor="start">
                <text x="0" y="0"  font-family="Times New Roman" font-size="24">Ｖ
                 <tspan   font-family="Times New Roman" font-size="20">&#160;</tspan>
                 <tspan   font-family="Times New Roman" font-size="24">=</tspan></text>
            </g>
            <rect x="92" y="151" width="30" height="31" fill=" none " />
            <g transform="translate(96, 171)" text-anchor="start">
                <text x="0" y="0"  font-family="Times New Roman" font-size="20">Ｒ</text>
            </g>
            <rect x="208" y="106" width="30" height="31" fill=" none " />
            <g transform="translate(212, 126)" text-anchor="start">
                <text x="0" y="0"  font-family="Times New Roman" font-size="20">Ｒ</text>
            </g>
            <line x1="93"  y1="134" x2="297" y2="134" style="stroke:#000000;stroke-width:2;" />
            <rect x="89" y="130" width="31" height="31" fill=" none " />
            <g transform="translate(93, 150)" text-anchor="start">
                <text x="0" y="0"  font-family="Times New Roman" font-size="20">Ａ</text>
            </g>
            <rect x="90" y="138" width="36" height="36" fill=" none " />
            <g transform="translate(94, 158)" text-anchor="start">
                <text x="0" y="0"  font-family="Times New Roman" font-size="24">－</text>
            </g>
            <rect x="117" y="134" width="38" height="36" fill=" none " />
            <g transform="translate(121, 154)" text-anchor="start">
                <text x="0" y="0"  font-family="Times New Roman" font-size="20">+
                 <tspan   font-family="Times New Roman" font-size="24">ｒ</tspan></text>
            </g>
            <rect x="69" y="136" width="34" height="31" fill=" none " />
            <g transform="translate(73, 156)" text-anchor="start">
                <text x="0" y="0"  font-family="Times New Roman" font-size="20">（</text>
            </g>
            <rect x="145" y="136" width="34" height="31" fill=" none " />
            <g transform="translate(149, 156)" text-anchor="start">
                <text x="0" y="0"  font-family="Times New Roman" font-size="20">）</text>
            </g>
            <rect x="188" y="135" width="34" height="31" fill=" none " />
            <g transform="translate(192, 155)" text-anchor="start">
                <text x="0" y="0"  font-family="Times New Roman" font-size="20">ω</text>
            </g>
            <rect x="158" y="136" width="43" height="31" fill=" none " />
            <g transform="translate(162, 156)" text-anchor="start">
                <text x="0" y="0"  font-family="Times New Roman" font-size="20">+
                 <tspan   font-family="Times New Roman" font-size="20">ｊ</tspan></text>
            </g>
            <rect x="170" y="136" width="34" height="31" fill=" none " />
            <g transform="translate(174, 156)" text-anchor="start">
                <text x="0" y="0"  font-family="Times New Roman" font-size="20">（</text>
            </g>
            <rect x="208" y="135" width="86" height="31" fill=" none " />
            <g transform="translate(212, 155)" text-anchor="start">
                <text x="0" y="0"  font-family="Times New Roman" font-size="20">ｍ
                 <tspan   font-family="Times New Roman" font-size="20">&#160;-</tspan>
                 <tspan   font-family="Times New Roman" font-size="20">ｓ&#160;</tspan>
                 <tspan   font-family="Times New Roman" font-size="20">/ω</tspan></text>
            </g>
            <rect x="280" y="136" width="34" height="31" fill=" none " />
            <g transform="translate(284, 156)" text-anchor="start">
                <text x="0" y="0"  font-family="Times New Roman" font-size="20">）</text>
            </g>
            <rect x="107" y="128" width="24" height="29" fill=" none " />
            <g transform="translate(111, 148)" text-anchor="start">
                <text x="0" y="0"  font-family="Times New Roman" font-size="18">2</text>
            </g>
            <rect x="164" y="107" width="46" height="31" fill=" none " />
            <g transform="translate(168, 127)" text-anchor="start">
                <text x="0" y="0"  font-family="Times New Roman" font-size="20">ＡＥ</text>
            </g>
            <rect x="203" y="107" width="20" height="31" fill=" none " />
            <g transform="translate(207, 127)" text-anchor="start">
                <text x="0" y="0"  font-family="Times New Roman" font-size="20">/</text>
            </g>
            <rect x="10" y="55" width="314" height="36" fill=" none " />
            <g transform="translate(14, 75)" text-anchor="start">
                <text x="0" y="0"  font-family="Times New Roman" font-size="24">放射インピーダンスは純抵抗</text>
            </g>
            <rect x="10" y="80" width="222" height="36" fill=" none " />
            <g transform="translate(14, 100)" text-anchor="start">
                <text x="0" y="0"  font-family="Times New Roman" font-size="24">Ｐ&#160;
                 <tspan   font-family="Times New Roman" font-size="24">と</tspan>
                 <tspan   font-family="Times New Roman" font-size="24">Ｖ&#160;</tspan>
                 <tspan   font-family="Times New Roman" font-size="24">とは比例関係</tspan></text>
            </g>
            <line x1="12"  y1="38" x2="324" y2="38" style="stroke:#3333CC;stroke-width:3;" />
</g>
</svg>
