<?xml version="1.0" standalone="no"  ?>
<!DOCTYPE svg PUBLIC "-//W3C//DTD SVG 1.1//EN"
 "http://www.w3.org/Graphics/SVG/1.1/DTD/svg11.dtd">
<svg width="720" height="540" background-color="#FFFFFF" Encoding="UTF-8" xmlns="http://www.w3.org/2000/svg" xmlns:xlink = "http://www.w3.org/1999/xlink">
                        <g id="groupstart">
            <line x1="241"  y1="365" x2="263" y2="396" style="stroke:#000000;stroke-width:1;" />
            <line x1="241"  y1="444" x2="267" y2="458" style="stroke:#FFFFFF;stroke-width:1;" />
            <rect x="154" y="422" width="34" height="31" fill=" none " />
            <g transform="translate(158, 442)" text-anchor="start">
                <text x="0" y="0"  font-family="Times New Roman" font-size="20">θ</text>
            </g>
            <g  transform="rotate(32,93.5,339.5)">
            <rect x="46" y="324" width="95" height="31" fill=" none " />
            <g transform="translate(50, 344)" text-anchor="start">
                <text x="0" y="0"  font-family="Times New Roman" font-size="20">音の方向</text>
            </g>
            </g>
            <line x1="65"  y1="348" x2="71" y2="358" style="stroke:#BA6F00;stroke-width:2;" />
            <line x1="70"  y1="351" x2="76" y2="361" style="stroke:#BA6F00;stroke-width:2;" />
            <line x1="76"  y1="354" x2="82" y2="364" style="stroke:#BA6F00;stroke-width:2;" />
            <line x1="96"  y1="366" x2="102" y2="376" style="stroke:#BA6F00;stroke-width:2;" />
            <line x1="101"  y1="369" x2="107" y2="379" style="stroke:#BA6F00;stroke-width:2;" />
            <line x1="106"  y1="372" x2="112" y2="382" style="stroke:#BA6F00;stroke-width:2;" />
            <line x1="127"  y1="385" x2="133" y2="395" style="stroke:#BA6F00;stroke-width:2;" />
            <line x1="132"  y1="388" x2="138" y2="398" style="stroke:#BA6F00;stroke-width:2;" />
            <line x1="137"  y1="391" x2="143" y2="401" style="stroke:#BA6F00;stroke-width:2;" />
            <line x1="158"  y1="403" x2="164" y2="413" style="stroke:#BA6F00;stroke-width:2;" />
            <line x1="163"  y1="406" x2="169" y2="416" style="stroke:#BA6F00;stroke-width:2;" />
            <line x1="168"  y1="409" x2="174" y2="419" style="stroke:#BA6F00;stroke-width:2;" />
            <line x1="189"  y1="422" x2="195" y2="432" style="stroke:#BA6F00;stroke-width:2;" />
            <line x1="194"  y1="424" x2="200" y2="434" style="stroke:#BA6F00;stroke-width:2;" />
            <line x1="199"  y1="428" x2="205" y2="438" style="stroke:#BA6F00;stroke-width:2;" />
            <line x1="49"  y1="342" x2="214" y2="440" style="stroke:#BA6F00;stroke-width:2;" />
            <line x1="49"  y1="342" x2="133" y2="391" style="stroke:#BA6F00;stroke-width:2;" />
            <line x1="88"  y1="308" x2="94" y2="318" style="stroke:#BA6F00;stroke-width:2;" />
            <line x1="94"  y1="312" x2="100" y2="322" style="stroke:#BA6F00;stroke-width:2;" />
            <line x1="99"  y1="315" x2="105" y2="325" style="stroke:#BA6F00;stroke-width:2;" />
            <line x1="119"  y1="327" x2="125" y2="337" style="stroke:#BA6F00;stroke-width:2;" />
            <line x1="125"  y1="330" x2="131" y2="340" style="stroke:#BA6F00;stroke-width:2;" />
            <line x1="130"  y1="333" x2="136" y2="343" style="stroke:#BA6F00;stroke-width:2;" />
            <line x1="150"  y1="345" x2="156" y2="355" style="stroke:#BA6F00;stroke-width:2;" />
            <line x1="155"  y1="348" x2="161" y2="358" style="stroke:#BA6F00;stroke-width:2;" />
            <line x1="161"  y1="351" x2="167" y2="361" style="stroke:#BA6F00;stroke-width:2;" />
            <line x1="181"  y1="364" x2="187" y2="374" style="stroke:#BA6F00;stroke-width:2;" />
            <line x1="186"  y1="367" x2="192" y2="377" style="stroke:#BA6F00;stroke-width:2;" />
            <line x1="192"  y1="370" x2="198" y2="380" style="stroke:#BA6F00;stroke-width:2;" />
            <line x1="72"  y1="303" x2="237" y2="401" style="stroke:#BA6F00;stroke-width:2;" />
            <line x1="72"  y1="303" x2="156" y2="352" style="stroke:#BA6F00;stroke-width:2;" />
            <line x1="242"  y1="411" x2="254" y2="411" style="stroke:#BA6F00;stroke-width:2;" />
            <line x1="242"  y1="418" x2="254" y2="418" style="stroke:#BA6F00;stroke-width:2;" />
            <line x1="242"  y1="423" x2="254" y2="424" style="stroke:#BA6F00;stroke-width:2;" />
            <line x1="157"  y1="342" x2="210" y2="430" style="stroke:#000000;stroke-width:1;" />
            <rect x="180" y="314" width="94" height="31" fill=" none " />
            <g transform="translate(184, 334)" text-anchor="start">
                <text x="0" y="0"  font-family="Times New Roman" font-size="20">同位相面</text>
            </g>
            <rect x="72" y="418" width="74" height="31" fill=" none " />
            <g transform="translate(76, 438)" text-anchor="start">
                <text x="0" y="0"  font-family="Times New Roman" font-size="20">振動面</text>
            </g>
</g>
</svg>
